<?xml version="1.0" encoding="UTF-8" standalone="no"?>
<!-- Created with Inkscape (http://www.inkscape.org/) -->

<svg
   width="32"
   height="32"
   viewBox="0 0 8.4666666 8.4666666"
   version="1.1"
   id="svg1"
   inkscape:version="1.3.2 (091e20e, 2023-11-25, custom)"
   sodipodi:docname="gofi-logo-32x32-self-design.svg"
   xmlns:inkscape="http://www.inkscape.org/namespaces/inkscape"
   xmlns:sodipodi="http://sodipodi.sourceforge.net/DTD/sodipodi-0.dtd"
   xmlns="http://www.w3.org/2000/svg"
   xmlns:svg="http://www.w3.org/2000/svg">
  <sodipodi:namedview
     id="namedview1"
     pagecolor="#505050"
     bordercolor="#eeeeee"
     borderopacity="1"
     inkscape:showpageshadow="0"
     inkscape:pageopacity="0"
     inkscape:pagecheckerboard="0"
     inkscape:deskcolor="#505050"
     inkscape:document-units="mm"
     inkscape:zoom="22.153314"
     inkscape:cx="19.477898"
     inkscape:cy="15.234741"
     inkscape:window-width="3440"
     inkscape:window-height="1334"
     inkscape:window-x="-11"
     inkscape:window-y="-11"
     inkscape:window-maximized="1"
     inkscape:current-layer="layer1" />
  <defs
     id="defs1" />
  <g
     inkscape:label="Layer 1"
     inkscape:groupmode="layer"
     id="layer1">
    <path
       style="fill:#aca386;stroke-width:0.15;stroke-linecap:round;stroke-linejoin:round;fill-opacity:1;stroke:#6a6248;stroke-opacity:1;stroke-dasharray:none"
       id="base-circle"
       sodipodi:type="arc"
       sodipodi:cx="4.2479243"
       sodipodi:cy="4.2479243"
       sodipodi:rx="4.095911"
       sodipodi:ry="4.095911"
       sodipodi:start="0"
       sodipodi:end="6.2821147"
       sodipodi:open="true"
       sodipodi:arc-type="arc"
       d="M 8.3438354,4.2479243 A 4.095911,4.095911 0 0 1 4.2490206,8.3438352 4.095911,4.095911 0 0 1 0.15201389,4.2501169 4.095911,4.095911 0 0 1 4.2446355,0.15201462 4.095911,4.095911 0 0 1 8.343833,4.2435392" />
    <path
       style="fill:#f5f3f0;fill-opacity:1;stroke-width:0.106;stroke-linecap:round;stroke-linejoin:round;stroke:#6a6248;stroke-opacity:1;stroke-dasharray:none"
       id="eye-outer-left"
       sodipodi:type="arc"
       sodipodi:cx="2.0928373"
       sodipodi:cy="3.2442915"
       sodipodi:rx="1.9210541"
       sodipodi:ry="1.8959423"
       sodipodi:start="0"
       sodipodi:end="6.2821147"
       sodipodi:open="true"
       sodipodi:arc-type="arc"
       d="M 4.0138915,3.2442915 A 1.9210541,1.8959423 0 0 1 2.0933515,5.1402338 1.9210541,1.8959423 0 0 1 0.17178348,3.2453064 1.9210541,1.8959423 0 0 1 2.0912948,1.3483498 1.9210541,1.8959423 0 0 1 4.0138904,3.2422617" />
    <path
       style="fill:#f5f3f0;fill-opacity:1;stroke-width:0.106;stroke-linecap:round;stroke-linejoin:round;stroke:#6a6248;stroke-opacity:1;stroke-dasharray:none"
       id="eye-outer-right"
       sodipodi:type="arc"
       sodipodi:cx="6.2679663"
       sodipodi:cy="3.231683"
       sodipodi:rx="1.9222566"
       sodipodi:ry="1.8971291"
       sodipodi:start="0"
       sodipodi:end="6.2821147"
       sodipodi:open="true"
       sodipodi:arc-type="arc"
       d="M 8.1902229,3.231683 A 1.9222566,1.8971291 0 0 1 6.2684808,5.128812 1.9222566,1.8971291 0 0 1 4.34571,3.2326986 1.9222566,1.8971291 0 0 1 6.2664228,1.3345546 1.9222566,1.8971291 0 0 1 8.1902218,3.2296519" />
    <path
       d="M 5.1820222,5.0294789 A 0.12868084,0.12868084 0 0 1 5.0533413,4.9329683 0.35387233,0.35387233 0 0 0 4.8281499,4.6112662 1.2224681,1.2224681 0 0 0 3.6378521,4.5469258 0.45038296,0.45038296 0 0 0 3.31615,4.9329683 c 0,0.09651 -0.03217,0.09651 -0.09651,0.1286808 A 0.90076594,0.90076594 0 0 0 2.7049165,5.4476918 0.57906382,0.57906382 0 0 0 2.6405758,6.1232661 0.51472339,0.51472339 0 0 0 3.1874696,6.4127982 h 0.1608509 c 0,0.1930212 -0.03217,0.4182126 -0.03217,0.6112338 0,0.1930214 0.1608511,0.5790639 0.4503829,0.5468937 a 2.573617,2.573617 0 0 0 0.4825531,-0.09651 c 0.03217,-0.03217 0.03217,-0.03217 0.03217,0 a 0.73991488,0.73991488 0 0 0 0.6755743,0.06434 0.5468936,0.5468936 0 0 0 0.2251916,-0.5468936 c 0,-0.2251914 -0.03217,-0.4182129 -0.03217,-0.6434042 H 5.2785329 A 0.51472339,0.51472339 0 0 0 5.7932557,5.7050535 0.86859572,0.86859572 0 0 0 5.1820222,5.0294789 Z M 4.1204053,7.2170534 c 0,0.09651 -0.09651,0.1930213 -0.2573618,0.1930213 -0.1608511,0 -0.3217021,-0.064341 -0.3217021,-0.1930213 a 6.7235743,6.7235743 0 0 1 0,-0.8042552 h 0.03217 L 4.1525757,6.1554364 c 0,0.3860425 0,0.7077447 -0.03217,1.061617 z m 0.7077446,0.160851 a 0.70774466,0.70774466 0 0 1 -0.3538723,-0.03217 c -0.03217,0 -0.09651,-0.09651 -0.09651,-0.1286808 v -1.029447 l 0.5147233,0.1930212 a 0.06434042,0.06434042 0 0 1 0.064341,0.064341 4.7290212,4.7290212 0 0 1 0,0.6755744 0.32170212,0.32170212 0 0 1 -0.128682,0.2573612 z M 5.5680653,5.9945853 C 5.471554,6.1554364 5.310703,6.1554364 5.0855115,6.1876066 L 4.6351286,6.0589258 a 1.0294468,1.0294468 0 0 0 -0.8685957,0 L 3.1874691,6.1876066 A 0.2895319,0.2895319 0 0 1 2.8335967,6.0267555 0.45038296,0.45038296 0 0 1 2.865767,5.5442024 L 3.0587882,5.3511811 a 0.38604254,0.38604254 0 0 1 0.450383,-0.03217 1.2546383,1.2546383 0 0 0 1.4476595,-0.06434 H 5.1176818 A 1.2546383,1.2546383 0 0 1 5.471554,5.4476924 0.5468936,0.5468936 0 0 1 5.568069,5.994586 Z"
       id="mouth-nose-tooth"
       style="fill:#1e1c15;fill-opacity:1;stroke-width:0.321709;stroke-dasharray:none" />
    <path
       d="m 6.3281773,2.6853736 a 0.58570272,0.58570272 0 0 0 -0.585703,0.6149879 0.55641758,0.55641758 0 0 0 0.585703,0.5564176 0.58570275,0.58570275 0 0 0 0,-1.1714055 z m 0.263566,0.9078393 a 0.17571082,0.17571082 0 0 1 -0.175711,-0.1757109 0.14642568,0.14642568 0 0 1 0.175711,-0.1757108 0.17571082,0.17571082 0 0 1 0.175711,0.1464257 0.20499595,0.20499595 0 0 1 -0.175711,0.204996 z"
       id="eye-right"
       style="fill:#1e1c15;fill-opacity:1;stroke-width:0.292851" />
    <path
       d="M 2.578001,3.335376 A 0.55641758,0.55641758 0 0 0 1.9922983,2.7496733 0.58570272,0.58570272 0 0 0 1.4065955,3.335376 0.58570272,0.58570272 0 0 0 2.0215834,3.9210787 0.55641758,0.55641758 0 0 0 2.578001,3.335376 Z M 2.2851496,3.3060908 a 0.17571082,0.17571082 0 0 1 0.1464257,0.1757109 c 0,0.087855 -0.1171405,0.1757108 -0.204996,0.1757108 A 0.17571082,0.17571082 0 0 1 2.0801537,3.4525165 C 2.1094388,3.335376 2.1680091,3.3060908 2.2851496,3.3060908 Z"
       id="eye-left"
       style="fill:#1e1c15;fill-opacity:1;stroke-width:0.292851" />
    <path
       style="fill:#f5f3f0;fill-opacity:1;stroke:#6a6248;stroke-width:0.0180957;stroke-linecap:round;stroke-linejoin:round;stroke-dasharray:none;stroke-opacity:1"
       d="m 14.095481,27.926299 c -0.36334,-0.09771 -0.607003,-0.284898 -0.673018,-0.517037 -0.04595,-0.161589 -0.07918,-1.902093 -0.04964,-2.60039 0.02371,-0.560551 0.02473,-0.566558 0.09636,-0.566558 0.03982,0 0.551765,-0.213065 1.137665,-0.473477 l 1.065273,-0.473478 0.0098,0.449539 c 0.02147,0.980865 -0.08184,3.429194 -0.156137,3.700303 -0.04744,0.173117 -0.265673,0.380322 -0.48827,0.463607 -0.21863,0.0818 -0.671655,0.09021 -0.942074,0.01749 z"
       id="teeth-left"
       transform="scale(0.26458333)" />
    <path
       style="fill:#f5f3f0;fill-opacity:1;stroke:#6a6248;stroke-width:0.0180957;stroke-linecap:round;stroke-linejoin:round;stroke-dasharray:none;stroke-opacity:1"
       d="m 17.55533,27.89404 c -0.05267,-0.0073 -0.227561,-0.04379 -0.388656,-0.08103 -0.32079,-0.07415 -0.417646,-0.143619 -0.549753,-0.394305 -0.06597,-0.125188 -0.06703,-0.157988 -0.06703,-2.070157 0,-1.541122 0.0083,-1.939836 0.0399,-1.927879 0.02194,0.0083 0.493942,0.184524 1.048883,0.39163 0.717386,0.26773 1.021349,0.395812 1.051767,0.443184 0.05663,0.0882 0.08195,1.969584 0.03437,2.554417 -0.02883,0.354361 -0.04717,0.440556 -0.129024,0.606457 -0.05248,0.106363 -0.157235,0.253731 -0.232788,0.327484 -0.137233,0.133965 -0.137648,0.134111 -0.424636,0.14881 -0.157998,0.0081 -0.330359,0.0087 -0.383025,0.0014 z"
       id="teeth-right"
       transform="scale(0.26458333)" />
  </g>
</svg>
