<?xml version="1.0" encoding="UTF-8" standalone="no"?>
<svg
   width="768"
   height="768"
   viewBox="0 0 768 768"
   fill="none"
   version="1.1"
   id="svg1"
   xml:space="preserve"
   xmlns="http://www.w3.org/2000/svg"
   xmlns:svg="http://www.w3.org/2000/svg"><defs
     id="defs1" /><g
     id="drawing-4-color-smooth-corner-with-gold-c-id-square48-recolor-goldyellow-OK"><g
       id="drawing-4-color-smooth-corner-with-gold-c 1"><path
         id="skin-neck"
         d="M367.161 500.431C364.138 500.044 353.542 498.157 343.613 496.238C333.684 494.319 315.847 491.134 303.975 489.16C229.771 476.824 196.806 469.757 144.243 454.922C115.479 446.802 111.405 445.451 106.713 442.476C101.806 439.364 100.666 436.413 100.749 427.039C100.835 417.212 101.694 405.866 102.405 405.156C102.706 404.855 107.347 407.826 112.718 411.758C133.668 427.096 143.52 431.459 166.221 435.452C177.219 437.385 199.289 437.778 210.961 436.247C238.948 432.577 268.366 422.004 289.453 408.034C292.476 406.033 300.423 400.014 307.115 394.659C313.806 389.305 319.711 384.591 320.235 384.185C320.906 383.665 322.511 384.875 325.651 388.266C330.691 393.711 334.218 395.995 341.822 398.744C351.304 402.17 352.835 404.071 355.871 416.177C357.858 424.098 360.542 428.192 366.283 432.056C377.431 439.558 395.629 440.021 406.123 433.069C412.48 428.859 416.179 421.718 418.304 409.557C420.173 398.857 421.726 396.96 431.45 393.508C434.694 392.356 439.493 390.137 442.114 388.574C450.3 383.699 454.489 384.822 465.61 394.876C490.913 417.75 525.252 432.824 562.607 437.455C576.423 439.169 600.79 438.576 612.012 436.256C628.098 432.93 637.803 428.762 655.5 417.579C661.262 413.938 666.17 411.151 666.407 411.388C666.643 411.624 666.982 416.858 667.159 423.02C667.465 433.624 667.386 434.388 665.662 437.334C662.892 442.069 657.933 444.58 641.29 449.669C586.257 466.498 554.516 473.641 481.602 485.602C460.534 489.058 433.939 493.652 422.498 495.811C411.057 497.971 398.705 500.096 395.047 500.535C387.247 501.47 374.926 501.424 367.161 500.431Z"
         fill="#aca386"
         stroke="black"
         stroke-width="0.108468" /><path
         id="skin-forehead"
         d="M402.21 256.81C393.281 254.633 374.725 254.697 365.502 256.935C363.986 257.304 363.798 256.915 363.304 252.374C360.386 225.619 348.808 192.891 334.693 171.499C311.213 135.913 279.127 116.26 233.875 109.746L224.548 108.403L233.061 104.368C247.674 97.4408 261.447 93.1078 282.288 88.8812C313.146 82.6229 340.223 79.8032 374.702 79.2573C409.34 78.7089 433.16 80.4835 462.087 85.767C488.199 90.5364 522.36 101.088 534.726 108.204L539.027 110.68L530.408 112.577C507.464 117.628 486.099 126.938 470.771 138.563C464.478 143.336 452.436 155.064 446.856 161.854C436.132 174.906 424.72 195.621 419.399 211.697C417.641 217.011 409.176 255.115 409.155 257.811C409.152 258.215 406.271 257.8 402.21 256.81Z"
         fill="#aca386"
         stroke="black"
         stroke-width="0.108468" /><path
         id="skin-upper-nose"
         d="M403.267 307.232C395.461 305.104 393.468 304.873 382.467 304.836C373.93 304.807 368.838 305.16 365.395 306.021L360.489 307.247L360.51 304.801C360.565 298.081 362.179 286.788 363.643 282.877C366.164 276.135 370.974 272.762 380.175 271.28C390.301 269.649 404.117 273.918 407.925 279.853C410.453 283.794 412.09 289.338 413.053 297.232C414.149 306.222 414.1 309.839 412.883 309.7C412.343 309.638 408.016 308.527 403.267 307.232Z"
         fill="#aca386"
         stroke="black"
         stroke-width="0.108468" /><path
         id="skin-left-eye-flesh"
         d="M178.388 420.012C157.87 418.189 140.015 411.841 126.197 401.455C117.63 395.015 109.07 386.031 106.484 380.764C104.388 376.495 104.219 375.496 104.298 367.828C104.345 363.257 104.72 358.917 105.13 358.183C105.756 357.064 107.427 358.526 115.533 367.279C132.481 385.579 142.732 393.988 154.99 399.645C167.367 405.358 178.893 406.723 205.175 405.591C223.648 404.795 232.071 403.508 244.496 399.584C278.855 388.729 308.088 364.284 323.221 333.752C332.578 314.874 336.698 298.307 337.472 276.453C338.378 250.85 334.032 229.159 323.607 207.254C309.302 177.202 286.625 156.164 257.428 145.862C236.573 138.503 209.965 137.485 181.92 142.973C176.739 143.987 172.323 144.644 172.108 144.434C171.892 144.224 174.096 141.794 177.006 139.034C188.79 127.859 203.672 123.948 226.267 126.087C245.727 127.929 259.896 131.801 275.325 139.495C312.688 158.124 337.473 193.873 345.315 240.442C347.283 252.13 347.279 280.758 345.308 292.118C336.515 342.773 309.768 379.969 266.299 401.992C249.401 410.554 232.884 415.797 214.306 418.5C205.875 419.727 185.045 420.604 178.388 420.012Z"
         fill="#aca386"
         stroke="black"
         stroke-width="0.108468" /><path
         id="skin-right-eye-flesh"
         d="M566.923 421.197C548.834 419.355 527.096 413.347 511.096 405.767C494.95 398.118 483.638 390.01 470.379 376.584C416.711 322.244 411.669 230.698 459.128 172.323C473.383 154.789 493.051 141.304 515.142 133.918C534.075 127.588 561.802 124.686 571.24 128.046C576.572 129.945 582.945 133.899 588.02 138.46L592.242 142.253L566.043 142.242C541.715 142.232 539.272 142.358 531.846 144.002C508.511 149.17 490.711 159.091 474.275 176.09C442.649 208.798 430.376 261.82 443.323 309.812C456.439 358.436 495.64 394.285 548.085 405.617C554.881 407.085 559.492 407.459 574.365 407.749C599.967 408.249 611.859 406.294 625.932 399.271C633.96 395.265 637.174 393.02 645.72 385.454C655.527 376.771 662.647 371.036 663.617 371.036C664.16 371.036 664.332 373.4 664.116 377.903C663.84 383.639 663.403 385.478 661.468 389.058C655.662 399.8 641.385 410.068 624.296 415.794C609.643 420.703 584.928 423.03 566.923 421.197Z"
         fill="#aca386"
         stroke="black"
         stroke-width="0.108468" /><path
         id="skin-left-ear-2"
         d="M118.671 131.865C114.999 122.216 114.651 107.83 117.911 100.411C120.148 95.3189 125.984 89.868 131.044 88.1438C139.86 85.1397 152.92 87.2985 161.799 93.2279C166.11 96.1072 179.173 109.066 179.173 110.464C179.173 111.376 172.574 112.797 168.338 112.797C165.515 112.797 163.701 112.269 161.586 110.834C159.996 109.755 158.455 108.872 158.162 108.872C157.869 108.872 155.462 111.02 152.814 113.646C148.471 117.95 147.382 118.592 141.747 120.183C136.453 121.677 134.274 122.872 127.501 128.002L119.506 134.057L118.671 131.865Z"
         fill="#aca386"
         stroke="black"
         stroke-width="0.108468" /><path
         id="skin-left-ear-1"
         d="M134.746 152.958C129.54 149.176 129.278 148.52 132.245 146.692C137.934 143.187 148.23 138.699 150.581 138.699C156.12 138.699 156.012 142.954 150.319 149.039C144.042 155.75 139.992 156.769 134.746 152.958Z"
         fill="#aca386"
         stroke="black"
         stroke-width="0.108468" /><path
         id="skin-right-ear-3"
         d="M628.419 155.571C626.195 154.458 621.956 151.252 619 148.447C614.139 143.832 613.766 143.266 615.094 142.501C617.525 141.1 629.669 142.039 633.289 143.907C636.328 145.476 639.922 149.71 639.922 151.722C639.922 153.345 636.57 156.651 634.427 157.144C633.153 157.437 631.045 156.884 628.419 155.571Z"
         fill="#aca386"
         stroke="black"
         stroke-width="0.108468" /><path
         id="skin-right-ear-2"
         d="M638.744 127.363L625.4 121.7L625.175 114.109C624.974 107.298 624.8 106.517 623.484 106.517C622.576 106.517 621.23 107.861 619.95 110.045C618.813 111.985 616.854 114.104 615.597 114.754C612.189 116.517 605.518 116.201 598.353 113.937C591.197 111.676 591.142 111.459 596.493 106.451C602.194 101.113 606.668 97.9341 612.101 95.3617C617.28 92.9096 618.001 92.781 626.577 92.781C634.142 92.781 636.192 93.0526 639.233 94.4586C644.207 96.759 649.053 101.325 651.56 106.075C653.524 109.797 653.657 110.698 653.647 120.253C653.641 125.865 653.288 131.035 652.862 131.741C652.178 132.876 650.535 132.367 638.744 127.363Z"
         fill="#aca386"
         stroke="black"
         stroke-width="0.108468" /><path
         id="skin-right-ear-1"
         d="M603.494 134.358C601.547 132.968 599.983 131.821 600.02 131.81C600.056 131.798 601.897 132.242 604.109 132.797L608.132 133.805L608.16 134.823L608.189 135.84L607.672 136.362C607.39 136.649 607.13 136.884 607.096 136.884C607.062 136.884 605.441 135.747 603.494 134.358Z"
         fill="#aca386"
         stroke="black"
         stroke-width="0.0135584" /><path
         id="skin-right-hand"
         d="M680.737 650.485C670.903 648.385 664.079 640.304 665.361 632.278C666.473 625.331 671.366 618.03 682.55 606.634C691.132 597.89 691.988 597.471 701.145 597.546C707.59 597.6 709.774 598.005 717.236 600.532C726.732 603.749 731.614 606.256 735.478 609.9C739.142 613.357 739.498 616.496 736.837 621.933C733.977 627.779 723.581 638.232 716.451 642.432C705.237 649.036 690.021 652.467 680.737 650.485Z"
         fill="#aca386"
         stroke="black"
         stroke-width="0.108468" /><path
         id="skin-left-hand"
         d="M70.5086 649.957C59.1325 647.519 49.497 642.301 40.3845 633.645C27.4423 621.351 26.6612 612.646 37.8962 605.913C46.8511 600.545 57.5183 597.545 67.768 597.511C74.6556 597.488 75.5481 597.664 78.5197 599.628C83.0164 602.601 97.8784 620.048 100.704 625.671C103.317 630.871 103.796 636.529 101.928 640.106C99.4383 644.872 93.3026 648.807 85.9244 650.371C80.6128 651.497 77.2737 651.408 70.5086 649.957Z"
         fill="#aca386"
         stroke="black"
         stroke-width="0.108468" /><path
         id="skin-under-nose"
         d="M341.822 383.859C336.128 381.052 333.881 373.621 336.577 366.508C338.028 362.681 345.541 349.725 348.322 346.255L349.893 344.295L358.92 348.234C370.553 353.309 377.373 354.837 386.454 354.404C393.203 354.081 393.8 353.894 403.07 349.19C414.182 343.552 417.16 342.82 421.186 344.729C430.704 349.247 438.742 367.076 434.744 374.806C431.763 380.571 425.522 381.522 407.977 378.885C391.155 376.357 388.375 376.587 366.53 382.32C354.281 385.536 346.239 386.036 341.822 383.859Z"
         fill="#aca386"
         stroke="black"
         stroke-width="0.108468" /><path
         id="right-outer-eye"
         d="m 567.895,395.272 c -23.117,-1.901 -45.956,-9.846 -65.368,-22.737 -9.902,-6.575 -24.715,-21.387 -31.287,-31.285 -8.938,-13.458 -14.826,-27.414 -18.18,-43.088 -2.341,-10.939 -2.907,-30.711 -1.209,-42.23 4.557,-30.927 19.61,-57.637 41.988,-74.508 9.652,-7.276 23.409,-13.926 35.016,-16.927 8.522,-2.203 10.887,-2.473 24.828,-2.833 32.648,-0.844 56.489,5.195 78.59,19.909 22.768,15.157 38.774,39.772 45.525,70.011 1.45,6.493 1.702,10.115 1.73,24.869 0.028,15.014 -0.205,18.436 -1.781,26.216 -7.85,38.761 -29.823,71.463 -57.056,84.918 -9.488,4.687 -17.443,6.792 -29.435,7.79 -10.116,0.842 -11.95,0.834 -23.361,-0.105 z m 20.74,-108.696 c 10.4,-4.951 16.626,-18.716 14.472,-31.996 -1.618,-9.973 -5.292,-15.52 -12.937,-19.539 -4.536,-2.385 -14.759,-2.355 -20.925,0.061 -6.561,2.569 -13.068,8.236 -16.387,14.271 -2.608,4.743 -2.803,5.571 -2.777,11.773 0.024,5.592 0.369,7.373 2.125,11 6.82,14.076 23.389,20.639 36.429,14.43 z"
         fill="#f5f3f0"
         stroke="#000000"
         stroke-width="0.108468"
         style="display:inline" /><path
         id="left-outer-eye"
         d="m 177.602,393.69 c -19.434,-3.198 -35.163,-12.558 -49.282,-29.326 -22.807,-27.085 -34.8725,-64.537 -31.6922,-98.372 1.7173,-18.271 5.5672,-31.666 13.5872,-47.276 10.806,-21.033 27.592,-37.502 47.945,-47.04 29.497,-13.823 68.848,-16.311 97.778,-6.182 42.152,14.758 69.169,55.51 69.326,104.571 0.056,17.468 -2.497,31.794 -8.381,47.034 -5.582,14.457 -15.695,29.918 -26.384,40.335 -19.12,18.635 -47.337,31.72 -77.459,35.921 -9.509,1.327 -28.329,1.504 -35.438,0.335 z m 36.18,-106.748 c 4.898,-2.106 9.616,-7.253 12.725,-13.88 2.099,-4.478 2.504,-6.35 2.768,-12.821 0.676,-16.573 -6.707,-25.639 -21.516,-26.416 -13.717,-0.72 -25,5.843 -30.333,17.644 -2.532,5.606 -2.355,14.089 0.417,19.911 6.952,14.596 22.518,21.337 35.939,15.562 z"
         fill="#f5f3f0"
         stroke="#000000"
         stroke-width="0.108468"
         style="display:inline" /><path
         id="left-inner-eye"
         d="M191.762 253.935C190.882 252.99 190.161 251.454 190.161 250.524C190.161 246.558 196.078 244.721 198.359 247.978C200.111 250.479 199.874 252.167 197.512 254.026C194.886 256.091 193.754 256.073 191.762 253.935Z"
         fill="#F9F9F9"
         stroke="black"
         stroke-width="0.108468" /><path
         id="right-inner-eye"
         d="M566.314 254.43C562.68 251.886 564.931 245.448 569.453 245.448C571.477 245.448 573.987 248.273 573.987 250.55C573.987 252.827 571.477 255.653 569.453 255.653C568.685 255.653 567.272 255.103 566.314 254.43Z"
         fill="#F9F9F9"
         stroke="black"
         stroke-width="0.108468" /><path
         id="right-teeth"
         d="M391.04 423.821C391.006 422.203 390.564 413.902 390.058 405.376C389.2 390.9 389.228 389.873 390.484 389.873C391.224 389.873 395.375 390.276 399.707 390.77L407.585 391.665V397.689C407.585 412.761 403.27 421.928 394.442 425.616C392.931 426.248 391.561 426.765 391.398 426.765C391.234 426.765 391.073 425.44 391.04 423.821Z"
         fill="#eae8e1"
         stroke="black"
         stroke-width="0.108468" /><path
         id="left-teeth"
         d="M378.39 425.589C370.644 422.741 366.629 416.552 366.177 406.76C365.938 401.553 366.15 400.054 367.413 398.052C369.135 395.322 372.817 393.319 377.492 392.573L380.66 392.066L381.157 399.015C382.313 415.129 382.665 426.762 381.995 426.71C381.607 426.68 379.985 426.175 378.39 425.589Z"
         fill="#eae8e1"
         stroke="black"
         stroke-width="0.108468" /><path
         id="left-suit"
         d="M103.162 680.109C103.474 664.02 103.647 663.386 111.121 651.074C117.166 641.117 118.454 634.62 115.995 626.474C115.353 624.345 112.171 618.219 108.924 612.863C105.678 607.505 102.503 601.376 101.869 599.243C101.236 597.11 100.355 590.897 99.9107 585.436C98.2345 564.81 95.8752 520.298 96.1142 513.808L96.363 507.053L153.662 521.372C216.845 537.162 243.915 544.437 293.807 559.038C312.175 564.414 331.248 569.72 336.193 570.83C346.892 573.233 352.768 575.738 354.732 578.735C356.882 582.015 356.615 588.888 352.8 628.49C350.949 647.701 349.093 668.144 348.676 673.918C347.829 685.622 346.369 690.213 342.741 692.592C340.637 693.97 335.451 694.04 221.714 694.237L102.885 694.443L103.162 680.109Z"
         fill="#f5f3f0"
         stroke="black"
         stroke-width="0.108468" /><path
         id="right-suit"
         d="M454.135 693.67C432.466 693.413 414.569 693.035 414.363 692.83C413.937 692.404 404.23 575.04 404.597 574.754C404.73 574.651 408.546 574.135 413.079 573.607C424.342 572.295 432.443 570.276 465.276 560.599C501.106 550.039 527.765 542.758 567.316 532.73C606.962 522.68 650.831 511.362 659.651 508.909L666.43 507.025L666.995 536.165C667.307 552.192 667.612 572.721 667.674 581.787L667.786 598.27L665.316 603.485C663.957 606.353 661.093 611.298 658.952 614.474C652.963 623.36 651.504 626.705 651.087 632.506C650.569 639.721 652.163 643.883 658.869 652.823C667.963 664.946 668.523 666.565 668.835 681.668L669.099 694.424L581.316 694.279C533.036 694.2 475.804 693.925 454.135 693.67Z"
         fill="#f5f3f0"
         stroke="black"
         stroke-width="0.108468" /><path
         id="right-top-suit"
         d="M412.396 558.021C411.045 555.461 392.632 511.314 392.847 511.151C392.967 511.062 396.687 510.561 401.114 510.039C410.941 508.882 435.206 504.787 515.904 490.668C569.397 481.309 604.876 472.705 645.322 459.282C665.01 452.748 668.593 452.226 671.79 455.423C674.502 458.134 676.014 462.097 676.557 467.913C677.87 481.974 668.188 491.008 644.462 497.858C639.159 499.389 610.624 506.646 581.052 513.986C518.899 529.41 507.54 532.481 475.48 542.519C445.76 551.824 443.386 552.509 429.562 555.776C413.42 559.589 413.237 559.613 412.396 558.021Z"
         fill="#f5f3f0"
         stroke="black"
         stroke-width="0.108468" /><path
         id="left-top-suit"
         d="M340.474 557.34C339.61 557.119 335.724 555.938 331.839 554.715C292.492 542.331 247.485 530.047 178.022 512.736C119.882 498.246 108.691 495.197 101.717 491.951C95.6849 489.144 90.3257 484.285 87.9696 479.488C85.5315 474.523 85.5757 465.093 88.0795 456.003C89.0606 452.442 89.9842 449.528 90.1321 449.528C90.2802 449.528 116.114 456.749 147.542 465.573L204.683 481.619L287.099 496.608C332.428 504.852 370.134 511.784 370.89 512.012C371.645 512.24 372.236 512.845 372.204 513.355C372.17 513.866 367.667 523.264 362.195 534.241C355.702 547.268 351.543 554.715 350.217 555.688C348.128 557.221 343.246 558.048 340.474 557.34Z"
         fill="#f5f3f0"
         stroke="black"
         stroke-width="0.108468" /><path
         id="left-shoulder"
         d="M64.574 575.078C62.1996 574.716 51.6755 574.169 41.1871 573.861L22.1172 573.301L22.631 570.872C23.647 566.071 28.5937 554.193 32.1428 548.036C37.5248 538.697 43.3083 531.38 51.4553 523.6C61.1185 514.373 77.8778 503.255 79.4945 504.998C81.0473 506.671 83.8569 547.852 83.2641 560.249C82.6578 572.932 77.4754 577.043 64.574 575.078Z"
         fill="#f5f3f0"
         stroke="black"
         stroke-width="0.108468" /><path
         id="left-elbow"
         d="M19.9081 604.747C19.4884 603.643 18.7577 600.604 18.2844 597.994C17.5873 594.149 17.6401 592.731 18.5629 590.523C20.2513 586.482 22.6465 585.336 31.3385 584.413C41.4127 583.342 66.9285 584.55 66.9285 586.097C66.9285 586.406 61.7784 588.124 55.4839 589.914C37.9085 594.913 28.9691 598.972 22.8033 604.755L20.6715 606.755L19.9081 604.747Z"
         fill="#f5f3f0"
         stroke="black"
         stroke-width="0.108468" /><path
         id="right-elbow"
         d="M735.044 599.14L722.24 591.914L708.946 589.303C701.634 587.867 695.651 586.399 695.651 586.042C695.651 584.548 721.415 582.57 731.364 583.299C743.586 584.193 747.754 586.029 750.707 591.817C752.338 595.014 752.339 595.092 750.924 600.777C750.138 603.931 749.126 606.479 748.672 606.439C748.219 606.398 742.086 603.114 735.044 599.14Z"
         fill="#f5f3f0"
         stroke="black"
         stroke-width="0.108468" /><path
         id="right-shoulder"
         d="M688.712 572.999C685.88 567.433 683.875 559.267 682.991 549.709C682.103 540.105 682.422 505.666 683.406 504.68C684.237 503.851 692.227 508.084 701.93 514.494C708.117 518.582 713.562 523.067 719.238 528.752C727.992 537.52 732.741 544.035 737.87 554.315C740.967 560.523 744.936 571.648 744.269 572.251C744.079 572.423 733.327 573.146 720.376 573.858C707.424 574.57 695.344 575.34 693.53 575.568C690.349 575.97 690.177 575.879 688.712 572.999Z"
         fill="#f5f3f0"
         stroke="black"
         stroke-width="0.108468" /><path
         id="all-strokes"
         d="M81.1267 492.407C46.4845 508.555 23.8873 534.426 12.3411 570.656C10.0707 577.78 6.56501 584.822 6.13918 592.392C5.45322 604.586 13.2942 615.839 20.3787 624.993C25.4107 631.496 30.4297 638.034 36.7395 643.369C51.2174 655.61 69.0701 660.175 87.6475 660.859L87.7485 686.935L90.9987 699.508L102.886 703.321L126.772 704.328L227.843 704.331L682.121 703.244V660.859C710.648 659.394 730.305 647.539 747.536 624.995C753.935 616.623 760.426 607.555 761.605 596.739C762.527 588.291 758.811 580.63 756.216 572.83C751.235 557.856 746.838 544.248 737.006 531.538C728.52 520.569 717.761 511.328 706.03 503.976C700.366 500.427 689.252 496.969 686.553 490.337C683.824 483.634 688.738 473.773 687.675 466.324C686.448 457.728 682.87 449.736 680.864 441.328C678.149 429.939 677.107 417.148 677.98 405.464C678.941 392.587 688.854 382.409 695.251 371.774C703.616 357.868 709.683 342.832 714.02 327.216C726.781 281.273 723.409 228.975 699.729 187.02C694.207 177.238 687.601 168.285 680.195 159.851C675.436 154.432 669.224 149.268 665.837 142.824C662.603 136.669 665.191 129.429 665.582 122.897C666.272 111.355 664.415 100.641 656.24 91.9294C641.163 75.864 615.461 78.4425 598.448 89.8003C590.277 95.2552 582.469 107.528 572.33 108.908C567.147 109.613 561.811 107.204 557.14 105.268C534.836 96.0218 513.227 86.3267 489.759 80.2114C426.022 63.6024 355.363 62.9607 290.877 75.7848C271.315 79.6753 251.846 84.956 233.277 92.2764C222.531 96.5129 211.02 104.088 199.674 106.157C189.204 108.066 181.399 94.6331 174.563 88.6815C159.258 75.3555 132.12 68.8403 115.468 83.9034C104.998 93.3749 101.975 108.346 104.117 121.812C105.134 128.21 109.26 136.331 106.519 142.671C103.031 150.74 94.0345 157.417 88.5328 164.199C78.9543 176.006 71.4052 189.268 65.6296 203.322C48.1428 245.869 47.8785 296.142 64.0549 339.17C68.0106 349.692 72.7257 359.833 78.289 369.6C82.2487 376.552 87.7434 383.463 89.6855 391.336C91.0831 397.001 90.1969 402.976 89.9459 408.725C89.6387 415.769 89.9428 423.354 87.7226 430.132C86.0125 435.354 82.3209 439.633 80.2713 444.72C73.8947 460.546 73.0003 477.278 81.1267 492.407ZM539.751 110.945C520.376 114.716 501.539 120.196 484.325 130.063C455.654 146.498 434.634 174.063 422.422 204.408C415.347 221.989 413.479 240.44 409.337 258.748C393.258 254.297 379.985 254.716 363.692 257.661C356.878 200.764 331.107 145.567 275.662 121.373C259.11 114.151 241.393 110.551 223.496 108.771C246.548 95.1358 276.6 88.7953 302.832 84.7419C356.081 76.5138 410.605 75.671 463.676 85.5871C480.656 88.7596 497.368 93.2833 513.669 98.9822C522.691 102.137 532.067 105.111 539.751 110.945ZM180.025 110.945C171.831 113.633 164.694 115.743 158.289 108.771L147.949 118.937L136.19 122.039L119.164 134.854C113.127 119.041 111.043 94.4368 131.159 87.6139C134.283 86.5546 137.617 86.2151 140.9 86.2504C144.951 86.294 149.012 86.9349 152.855 88.2251C164.407 92.104 173.039 101.35 180.025 110.945ZM652.777 133.767L624.521 121.813V106.598H622.347C620.832 109.601 619.359 113.013 616.405 114.898C609.541 119.277 597.802 114.103 590.831 112.032C597.777 104.095 605.525 96.5944 615.827 93.3426C633.737 87.689 653.547 96.0509 654.714 116.376C655.055 122.309 654.144 128.02 652.777 133.767ZM105.036 355.472C123.377 374.009 136.693 393.654 162.636 402.313C176.166 406.828 190.959 405.493 205.021 405.461C254.053 405.349 302.781 376.231 324.124 331.563C357.969 260.728 326.337 160.325 244.145 142.477C219.259 137.073 194.787 140.099 170.243 145.722C184.406 126.744 202.194 123.942 224.583 125.516C255.4 127.684 283.439 138.574 305.879 160.279C352.99 205.847 359.339 284.848 329.632 341.344C300.894 395.996 239.344 424.186 178.938 420.363C156.346 418.934 136.092 411.707 119.194 396.334C113.684 391.322 107.355 385.483 104.779 378.295C102.234 371.19 104.14 362.745 105.036 355.472ZM594.091 143.548C561.723 141.058 531.307 139.129 501.714 155.245C431.21 193.641 418.823 299.271 468.882 358.731C490.875 384.857 522.276 401.68 556.053 406.58C567.117 408.186 578.591 407.82 589.744 407.579C606.175 407.225 623.048 402.327 636.476 392.658C646.412 385.501 654.122 375.855 664.732 369.6C664.723 375.17 665.256 381.34 663.168 386.624C657.121 401.93 636.181 413.019 621.261 417.244C583.109 428.047 537.311 420.989 502.801 402.139C426.407 360.41 403.192 254.617 450.814 182.673C470.677 152.666 501.958 132.994 537.578 128.106C548.17 126.653 560.842 124.391 571.268 127.645C580.164 130.421 587.664 137.061 594.091 143.548ZM608.219 133.767V135.941L607.132 137.028L599.525 131.594L608.219 133.767ZM128.946 147.896C132.222 146.162 135.495 144.416 138.81 142.756C141.863 141.227 151.307 135.382 154.355 139.409C158.028 144.264 147.61 153.452 143.9 155.02C137.467 157.741 132.634 152.406 128.946 147.896ZM612.566 142.462C620.584 140.653 636.016 139.87 639.696 149.79C641.335 154.21 637.269 158.05 632.957 157.638C628.631 157.225 624.658 154.062 621.446 151.387C618.201 148.684 615.377 145.6 612.566 142.462ZM93.0814 361.993C83.7594 350.17 78.229 335.112 74.2855 320.695C64.4308 284.667 65.5161 244.624 79.596 209.842C85.6868 194.797 94.3516 180.464 105.496 168.623C109.487 164.382 116.378 157.031 122.798 161.026C127.404 163.894 126.214 169.058 123.716 172.913C116.857 183.495 107.812 192.104 101.695 203.322C85.9149 232.258 82.1145 264.409 86.135 296.785C87.703 309.413 92.7778 321.211 94.5147 333.736C95.8087 343.068 94.2255 352.717 93.0814 361.993ZM675.6 371.774C675.088 364.577 674.075 357.207 675.352 350.038C677.99 335.234 685.685 321.44 688.769 306.567C694.297 279.903 692.268 249.497 683.025 223.971C678.643 211.867 672.623 200.573 664.872 190.28C659.863 183.629 649.228 175.453 649.22 166.456C649.217 162.847 651.132 159.665 652.777 156.59C703.7 193.109 716.081 267.976 698.636 325.042C693.6 341.513 686.823 358.513 675.6 371.774ZM205.021 159.254C224.797 157.554 245.439 160.018 263.707 168.045C324.36 194.694 340.92 272.512 312.418 328.302C290.684 370.846 247.637 391.469 201.76 395.058C186.119 396.282 169.207 393.987 155.028 387.012C141.473 380.344 130.244 368.684 121.487 356.559C100.616 327.659 91.523 289.687 97.579 254.401C102.861 223.628 119.59 194.527 146.334 177.631C163.952 166.5 184.397 161.027 205.021 159.254ZM544.099 161.431C587.991 157.567 633.411 169.889 659.659 207.67C665.933 216.701 670.683 226.619 674.236 237.012C687.635 276.198 679.229 322.991 655.811 356.559C641.105 377.637 621.313 393.128 595.178 395.558C540.46 400.647 485.475 376.658 461.434 325.042C435.297 268.927 455.317 193.907 514.755 168.728C524.168 164.741 533.919 162.327 544.099 161.431ZM576.702 233.616C564.752 235.228 552.846 244.367 550.472 256.579C547.085 273.992 563.78 290.632 581.045 288.576C611.533 284.944 611.086 228.98 576.702 233.616ZM196.338 235.237C184.925 238.68 175.225 249.675 175.826 262.008C176.642 278.786 195.08 293.088 211.472 287.643C229.034 281.811 235.58 253.035 222.648 239.964C215.997 233.242 205.005 232.623 196.338 235.237ZM569.095 245.233C576.05 245.233 576.05 255.961 569.095 255.961C562.139 255.961 562.138 245.233 569.095 245.233ZM192.815 245.999C198.961 243.477 202.797 252.866 196.693 255.468C190.669 258.035 186.814 248.46 192.815 245.999ZM414.771 310.914C395.712 304.363 380.096 302.548 360.431 307.653C360.394 298.906 360.269 285.833 365.352 278.326C372.801 267.329 398.344 268.705 406.798 277.608C413.939 285.126 413.524 301.136 414.771 310.914ZM349.564 343.517C363.819 350.164 375.636 356.447 391.948 353.659C400.649 352.173 411.269 341.107 419.908 343.654C430.118 346.665 443.196 370.341 432.378 378.388C427.996 381.647 422.059 381.221 416.943 380.606C407.885 379.516 398.962 377.198 389.775 377.714C375.589 378.512 361.475 386.475 347.425 385.789C337.557 385.308 332.716 376.359 335.66 367.425C336.795 363.985 338.608 360.774 340.429 357.661C343.265 352.814 346.407 348.159 349.564 343.517ZM666.906 409.811C666.977 417.993 670.531 431.72 665.484 438.771C660.212 446.135 645.693 448.43 637.562 451.092C611.879 459.498 585.726 466.212 559.314 471.874C520.459 480.203 481.156 486.196 441.941 492.517C422.131 495.709 401.194 501.842 381.08 501.774C363.153 501.713 344.396 496.348 326.741 493.404C291.905 487.593 257.013 481.872 222.409 474.787C192.314 468.626 162.638 461.101 133.293 452.024C124.548 449.319 107.628 446.931 102.141 438.903C99.6175 435.21 100.149 430.328 100.351 426.103C100.716 418.467 100.67 410.871 101.776 403.291C115.386 412.65 127.261 423.531 143.074 429.213C187.79 445.279 241.815 435.348 282.183 412.12C296.497 403.883 308.356 392.733 321.307 382.642C325.371 387.819 329.586 392.788 335.486 395.941C340.296 398.512 347.003 398.891 350.886 402.949C356.153 408.453 355.325 418.397 359.44 424.895C367.954 438.34 392.696 441.817 405.823 432.976C412.615 428.401 415.758 420.813 417.351 413.074C418.289 408.519 418.362 403.017 421.001 399.028C424.395 393.9 432.37 393.412 437.49 390.738C441.902 388.434 446.505 384.123 451.864 385.242C459.245 386.783 465.673 394.745 471.284 399.337C480.955 407.25 491.556 414.101 502.801 419.561C539.73 437.49 588.18 445.205 627.781 431.673C642.315 426.707 654.026 417.825 666.906 409.811ZM408.25 391.336C408.116 406.184 408.213 423.439 390.861 427.2L388.688 389.162L408.25 391.336ZM381.08 391.336L383.254 427.2C371.952 425.368 366.492 419.132 365.601 407.668C365.307 403.883 365.23 399.53 367.889 396.496C371.09 392.843 376.584 392.148 381.08 391.336ZM373.473 511.969C368.403 522.937 362.78 533.634 357.62 544.558C355.439 549.177 353.193 555.963 347.706 557.532C341.275 559.373 332.835 555.36 326.741 553.54C311.183 548.894 295.6 544.314 280.009 539.778C237.965 527.546 195.327 517.561 152.855 506.943C140.87 503.947 128.892 500.947 116.991 497.63C108.85 495.361 100.193 493.089 93.5659 487.567C81.3859 477.417 85.6034 461.997 89.821 448.936L203.934 481.029L373.473 511.969ZM412.597 559.788L391.948 510.883C419.218 507.784 446.385 502.082 473.457 497.57C516.78 490.349 560.334 483.2 602.785 471.751C619.615 467.211 636.322 462.19 652.776 456.428C658.298 454.495 667.089 450.074 672.206 455.002C675.137 457.826 676.364 462.441 676.916 466.339C680.446 491.223 649.98 496.829 632.128 501.605C590.25 512.809 547.801 521.81 506.061 533.561C475.241 542.238 444.229 554.64 412.597 559.788ZM80.04 503.275C82.759 520.406 83.1174 538.127 83.9134 555.441C84.2071 561.832 83.9861 570.693 77.7021 574.4C72.5995 577.41 64.9332 575.351 59.3903 574.88C46.7152 573.803 34.0632 573.916 21.3534 573.916C29.0001 542.416 50.8576 517.084 80.04 503.275ZM745.154 572.83L689.728 576.09C681.981 562.074 682.121 548.244 682.121 532.618C682.121 522.813 681.789 513.001 683.208 503.275C713.191 517.399 737.204 539.821 745.154 572.83ZM102.863 694.55C102.863 684.576 101.123 672.603 104.333 663.033C107.956 652.235 117.758 644.964 116.881 632.603C115.924 619.119 103.85 610.596 101.03 597.826C98.5588 586.637 98.9646 574.454 98.2344 563.049C97.03 544.236 95.2807 525.394 95.255 506.536C157.337 521.643 219.796 536.832 281.096 554.861C297.38 559.649 313.635 564.553 330.001 569.06C337.005 570.989 346.678 571.715 352.699 575.961C359.79 580.961 356.009 594.964 355.403 602.173C353.542 624.285 351.406 646.372 349.362 668.467C348.759 674.996 349.771 688.369 343.607 692.555C338.674 695.904 330.203 694.548 324.567 694.55H277.836H102.863ZM666.906 506.536C666.906 527.929 667.992 549.256 667.992 570.656C667.992 579.464 669.174 589.128 667.708 597.826C665.374 611.68 650.83 619.629 651.172 634.777C651.465 647.728 662.285 653.564 667.093 664.306C671.015 673.07 669.079 685.16 669.079 694.55H506.061L413.684 693.463L403.903 573.916C420.152 573.683 435.165 569.095 450.635 564.518C468.006 559.377 485.348 554.112 502.801 549.254C557.25 534.095 612.411 521.542 666.906 506.536ZM752.762 595.652L749.502 607.607L722.332 592.458L695.162 586.958V584.784C707.881 583.832 720.409 582.067 733.198 582.995C743.287 583.728 749.999 585.173 752.762 595.652ZM70.2589 585.871C52.1492 592.264 34.5573 593.204 20.2666 607.607C18.9521 602.326 15.5224 593.633 18.761 588.58C21.4254 584.422 27.8384 584.128 32.2296 583.879C44.9041 583.161 57.7646 583.619 70.2589 585.871ZM72.2521 596.84C79.7545 597.675 84.6674 604.503 89.2434 609.805C94.5999 616.011 101.827 623.099 103.339 631.504C106.122 646.967 87.6264 652.643 75.6928 651.26C61.4572 649.61 47.965 642.772 38.1263 632.382C34.3753 628.42 29.7376 623.184 29.2855 617.468C28.8449 611.896 33.3789 607.891 37.7669 605.322C46.7898 600.041 61.7193 595.667 72.2521 596.84ZM693.322 597.644C703.527 594.426 720.828 600.401 729.864 605.196C733.864 607.318 738.6 610.557 739.056 615.496C739.496 620.244 736.033 624.747 733.229 628.212C725.826 637.362 716.223 644.701 704.943 648.273C693.506 651.895 677 654.609 668.366 643.926C658.086 631.204 672.345 616.754 680.708 607.687C684.276 603.818 688.13 599.281 693.322 597.644Z"
         fill="#050505"
         stroke="#050505"
         stroke-width="3"
         style="fill:#000000;fill-opacity:1" /></g><path
       style="fill:none;stroke:#7f7f7f;stroke-width:3;stroke-linejoin:round;stroke-dasharray:none;stroke-opacity:1"
       d="M 88.668011,350.65047 C 81.854861,339.09655 78.939841,331.82506 75.284183,317.26461 71.36548,301.65646 69.762552,288.81922 69.757061,273 c -0.0055,-15.91048 1.485131,-28.70784 4.932904,-42.34932 3.756777,-14.86409 13.177912,-33.21534 24.59116,-47.90068 3.876895,-4.98838 14.017585,-15.68901 18.142675,-19.14449 l 2.4238,-2.03035 1.6651,0.89671 c 0.9158,0.4932 1.93847,1.55669 2.27258,2.36332 1.27907,3.08794 -0.58874,6.44733 -10.79459,19.41481 -8.59021,10.91466 -11.38426,15.18607 -15.535529,23.75 -9.9732,20.57437 -14.343987,40.40209 -14.383591,65.25 -0.02751,17.26052 1.142813,26.18789 5.639973,43.02239 4.04137,15.1283 4.29596,16.69231 4.228663,25.97761 -0.03289,4.5375 -0.257886,9.55521 -0.5,11.15047 L 92,356.30094 Z"
       id="path17" /><path
       style="fill:none;stroke:#808080;stroke-width:3;stroke-linejoin:round;stroke-dasharray:none;stroke-opacity:1"
       d="m 676.54727,355.25 c 0.43272,-5.53238 2.24373,-12.65803 5.71844,-22.5 9.37034,-26.54109 11.17075,-35.82558 11.1017,-57.25 -0.0799,-24.80029 -4.87612,-46.19897 -14.8611,-66.30409 -5.38666,-10.84624 -10.03588,-17.74115 -17.85044,-26.47263 -5.16265,-5.76841 -7.55099,-9.0018 -8.7255,-11.81281 -1.09072,-2.61046 -0.97751,-6.46398 0.27444,-9.34151 1.21414,-2.79063 0.47076,-3.04216 6.91496,2.33972 15.45092,12.90386 28.51018,32.76077 36.30296,55.19954 3.41642,9.83734 6.28929,22.77534 7.91423,35.64178 1.02186,8.0912 0.87734,32.03233 -0.24447,40.5 -1.79425,13.54327 -7.04395,29.49625 -14.45068,43.91321 -2.75156,5.35583 -9.18444,15.86221 -11.38038,18.58679 l -1.00747,1.25 z"
       id="path16" /><path
       style="fill:none;fill-opacity:1;stroke:#7f7f7f;stroke-width:3.02362205;stroke-dasharray:none;stroke-opacity:1"
       d="m 79.154473,492.61554 c -34.882956,16.25961 -57.637093,42.31084 -69.2635887,78.79243 -2.2861792,7.17367 -5.8162052,14.26413 -6.2449927,21.8868 -0.6907254,12.27871 7.2047304,23.60993 14.3384024,32.82803 5.067036,6.54755 10.120919,13.1312 16.474525,18.5034 14.578502,12.3266 32.555294,16.92217 51.261693,17.61194 l 0.101766,26.25603 3.272726,12.66053 11.969676,3.84002 24.0521,1.0133 101.77356,0.003 457.43385,-1.09432 v -42.67923 c 28.72529,-1.47575 48.51836,-13.41299 65.8689,-36.11386 6.44362,-8.43054 12.98015,-17.56095 14.16776,-28.45217 0.92752,-8.50598 -2.81399,-16.22107 -5.42659,-24.07546 -5.01546,-15.0781 -9.4433,-28.78015 -19.34406,-41.57857 -8.54479,-11.04549 -19.37855,-20.35025 -31.19038,-27.75318 -5.70376,-3.57469 -16.89468,-7.05632 -19.61278,-13.73391 -2.74773,-6.7505 2.20097,-16.67905 1.1303,-24.1796 -1.2357,-8.65645 -4.83951,-16.70403 -6.85829,-25.16981 -2.73495,-11.4692 -3.78303,-24.34803 -2.90457,-36.1132 0.96819,-12.96659 10.94975,-23.21494 17.39195,-33.92451 8.42276,-14.00201 14.5314,-29.14315 18.89907,-44.86792 12.84953,-46.26208 9.4536,-98.92288 -14.39106,-141.16974 -5.5596,-9.85028 -12.21184,-18.86551 -19.66965,-27.35788 -4.79174,-5.45649 -11.04687,-10.65679 -14.45703,-17.14541 -3.25692,-6.19696 -0.65139,-13.48822 -0.25768,-20.0648 0.69557,-11.62249 -1.17456,-22.410927 -9.4069,-31.183187 -15.18113,-16.176571 -41.06124,-13.580188 -58.19287,-2.143456 -8.22799,5.492802 -16.09094,17.850973 -26.2993,19.240153 -5.21895,0.71022 -10.59264,-1.71584 -15.29573,-3.66538 -22.4597,-9.310127 -44.21827,-19.072491 -67.84905,-25.230252 -64.18031,-16.72443 -135.33008,-17.370652 -200.26409,-4.457379 -19.69848,3.91741 -39.30208,9.234931 -58.00001,16.606175 -10.82106,4.265925 -22.41223,11.893846 -33.8371,13.977116 -10.54263,1.92245 -18.401,-11.604078 -25.28431,-17.597057 -15.412,-13.418538 -42.73809,-19.979032 -59.50598,-4.811214 -10.54337,9.537232 -13.58662,24.612051 -11.43035,38.172261 1.02433,6.44175 5.17854,14.61957 2.41898,21.00365 -3.51229,8.12543 -12.571426,14.84811 -18.111425,21.67716 -9.64507,11.88926 -17.246485,25.2445 -23.062237,39.395 -17.608267,42.84337 -17.874464,93.46466 -1.585609,136.79239 3.983133,10.595 8.730946,20.80625 14.332949,30.64149 3.987225,7.00028 9.520101,13.959 11.475683,21.8868 1.407299,5.70502 0.514864,11.72025 0.262231,17.50942 -0.309387,7.09317 -0.003,14.73078 -2.238782,21.55657 -1.721934,5.25758 -5.439204,9.56626 -7.503025,14.68844 -6.420983,15.93608 -7.321573,32.78467 0.861338,48.01912"
       id="path4" /><g
       id="layer2"
       transform="matrix(4.084211,0,0,3.9798496,8.8608158,72.769345)"
       style="stroke-width:0.99993;stroke-dasharray:none"><path
         style="display:inline;fill:#797053;fill-opacity:1;fill-rule:nonzero;stroke:#000000;stroke-width:3.77926;stroke-dasharray:none;stroke-opacity:1"
         d="m -253.9351,662.35646 c -25.93079,-3.2938 -50.392,-13.92852 -70.93935,-30.84148 -6.96086,-5.72963 -17.07738,-16.19702 -22.48469,-23.26454 -26.68104,-34.87286 -37.54219,-79.10741 -30.22118,-123.08269 10.07107,-60.49408 54.22407,-108.80191 110.99227,-121.43672 9.26143,-2.06131 17.01674,-2.85524 28.01976,-2.86847 18.61756,-0.0224 33.27202,2.773 50.43558,9.62072 31.42191,12.53635 58.36128,37.66731 74.54904,69.54462 18.816966,37.05482 22.230029,80.89963 9.41145,120.90111 -12.28654,38.34123 -38.69837,70.01482 -72.97929,87.51824 -12.18688,6.22248 -25.04974,10.50832 -38.73411,12.90603 -9.66768,1.69392 -28.66784,2.19487 -38.04948,1.00318 z m 32.67707,-10.71525 c 48.6457,-6.7849 89.72772,-42.37933 106.23725,-92.04647 5.44801,-16.38977 7.18469,-27.67796 7.18469,-46.69961 0,-14.89028 -0.57127,-20.64542 -3.25811,-32.82315 -9.17231,-41.57231 -37.07213,-77.35857 -74.1031,-95.04984 -16.99941,-8.12133 -33.78621,-11.87332 -53.10413,-11.86919 -14.87116,0.003 -24.9354,1.59909 -38.86264,6.16257 -19.47791,6.38225 -37.75724,18.02414 -52.52652,33.45353 -20.10667,21.00533 -32.89439,47.1695 -37.87448,77.49263 -1.01128,6.15757 -1.17808,9.27787 -1.19562,22.36659 -0.0217,16.20577 0.43054,20.92229 3.17299,33.09001 10.67892,47.38036 44.541,86.17466 87.77666,100.56184 10.58773,3.5232 19.6516,5.33324 32.03767,6.39788 4.4066,0.37877 18.70033,-0.22573 24.51534,-1.03679 z"
         id="path41-9"
         transform="matrix(0.26458333,0,0,0.26458333,199.54452,-86.045012)" /><path
         style="display:inline;fill:#797053;fill-opacity:1;fill-rule:nonzero;stroke:#000000;stroke-width:3.77926;stroke-dasharray:none;stroke-opacity:1"
         d="m -253.9351,662.35646 c -25.93079,-3.2938 -50.392,-13.92852 -70.93935,-30.84148 -6.96086,-5.72963 -17.07738,-16.19702 -22.48469,-23.26454 -26.68104,-34.87286 -37.54219,-79.10741 -30.22118,-123.08269 10.07107,-60.49408 54.22407,-108.80191 110.99227,-121.43672 9.26143,-2.06131 17.01674,-2.85524 28.01976,-2.86847 18.61756,-0.0224 33.27202,2.773 50.43558,9.62072 31.42191,12.53635 58.36128,37.66731 74.54904,69.54462 18.816966,37.05482 22.230029,80.89963 9.41145,120.90111 -12.28654,38.34123 -38.69837,70.01482 -72.97929,87.51824 -12.18688,6.22248 -25.04974,10.50832 -38.73411,12.90603 -9.66768,1.69392 -28.66784,2.19487 -38.04948,1.00318 z m 32.67707,-10.71525 c 48.6457,-6.7849 89.72772,-42.37933 106.23725,-92.04647 5.44801,-16.38977 7.18469,-27.67796 7.18469,-46.69961 0,-14.89028 -0.57127,-20.64542 -3.25811,-32.82315 -9.17231,-41.57231 -37.07213,-77.35857 -74.1031,-95.04984 -16.99941,-8.12133 -33.78621,-11.87332 -53.10413,-11.86919 -14.87116,0.003 -24.9354,1.59909 -38.86264,6.16257 -19.47791,6.38225 -37.75724,18.02414 -52.52652,33.45353 -20.10667,21.00533 -32.89439,47.1695 -37.87448,77.49263 -1.01128,6.15757 -1.17808,9.27787 -1.19562,22.36659 -0.0217,16.20577 0.43054,20.92229 3.17299,33.09001 10.67892,47.38036 44.541,86.17466 87.77666,100.56184 10.58773,3.5232 19.6516,5.33324 32.03767,6.39788 4.4066,0.37877 18.70033,-0.22573 24.51534,-1.03679 z"
         id="path41"
         transform="matrix(0.26458333,0,0,0.26458333,111.55647,-85.008854)" /><path
         style="fill:#797053;fill-opacity:1;fill-rule:nonzero;stroke:#000000;stroke-width:0.99993;stroke-dasharray:none;stroke-opacity:1"
         d="m 86.065845,48.957846 c -0.231923,-2.018994 -0.255552,-1.960924 0.986189,-2.423792 3.61898,-1.349007 7.451651,-1.378254 11.006394,-0.084 l 0.976822,0.355654 v 1.543947 c 0,0.849169 -0.02913,1.543945 -0.06472,1.543945 -0.03559,0 -0.572908,-0.157252 -1.194033,-0.349453 -3.736978,-1.156362 -7.560821,-1.066203 -11.32963,0.267135 -0.228879,0.08098 -0.289211,-0.05415 -0.381027,-0.853441 z"
         id="path43" /></g></g></svg>
