<!-- https://feathericons.com/ -->
<!-- https://css-tricks.com/svg-use-with-external-reference-take-2/ -->
<svg xmlns="http://www.w3.org/2000/svg">

    <!-- smile -->
    <symbol id="feather-smile"
        fill="none" stroke-width="2" stroke-linecap="round" stroke-linejoin="round" class="feather feather-smile"><circle cx="12" cy="12" r="10"></circle><path d="M8 14s1.5 2 4 2 4-2 4-2"></path><line x1="9" y1="9" x2="9.01" y2="9"></line><line x1="15" y1="9" x2="15.01" y2="9"></line>
    </symbol>

    <!-- home -->
    <symbol id="feather-home"
        width="22" height="22" viewBox="0 0 26 26" fill="none" stroke="currentColor" stroke-width="2" stroke-linecap="round" stroke-linejoin="round" class="feather feather-home"><path d="M3 9l9-7 9 7v11a2 2 0 0 1-2 2H5a2 2 0 0 1-2-2z"></path><polyline points="9 22 9 12 15 12 15 22"></polyline>
    </symbol>

    <!-- database -->
    <symbol id="feather-database" 
        width="24" height="24" viewBox="0 0 24 24" fill="none" stroke="currentColor" stroke-width="2" stroke-linecap="round" stroke-linejoin="round" class="feather feather-database">
        <ellipse cx="12" cy="5" rx="9" ry="3"></ellipse><path d="M21 12c0 1.66-4 3-9 3s-9-1.34-9-3"></path><path d="M3 5v14c0 1.66 4 3 9 3s9-1.34 9-3V5"></path>
    </symbol>

    <!-- save -->
    <symbol id="feather-save" 
        width="24" height="24" viewBox="0 0 24 24" fill="none" stroke="currentColor" stroke-width="2" stroke-linecap="round" stroke-linejoin="round" class="feather feather-save">
        <path d="M19 21H5a2 2 0 0 1-2-2V5a2 2 0 0 1 2-2h11l5 5v11a2 2 0 0 1-2 2z"></path><polyline points="17 21 17 13 7 13 7 21"></polyline><polyline points="7 3 7 8 15 8"></polyline>
    </symbol>

    <!-- file text -->
    <symbol id="feather-file-text"
        width="24" height="24" viewBox="0 0 24 24" fill="none" stroke="currentColor" stroke-width="2" stroke-linecap="round" stroke-linejoin="round" class="feather feather-file-text"><path d="M14 2H6a2 2 0 0 0-2 2v16a2 2 0 0 0 2 2h12a2 2 0 0 0 2-2V8z"></path><polyline points="14 2 14 8 20 8"></polyline><line x1="16" y1="13" x2="8" y2="13"></line><line x1="16" y1="17" x2="8" y2="17"></line><polyline points="10 9 9 9 8 9"></polyline>
    </symbol>

    <!-- square -->
    <symbol id="feather-square" 
        width="24" height="24" viewBox="0 0 24 24" fill="none" stroke="currentColor" stroke-width="2" stroke-linecap="round" stroke-linejoin="round" class="feather feather-square"><rect x="3" y="3" width="18" height="18" rx="2" ry="2"></rect>
    </symbol>
    <!-- plus square -->
    <symbol id="feather-plus-square" 
        width="24" height="24" viewBox="0 0 24 24" fill="none" stroke="currentColor" stroke-width="2" stroke-linecap="round" stroke-linejoin="round" class="feather feather-plus-square"><rect x="3" y="3" width="18" height="18" rx="2" ry="2"></rect><line x1="12" y1="8" x2="12" y2="16"></line><line x1="8" y1="12" x2="16" y2="12"></line>
    </symbol>
    <!-- minus square -->
    <symbol id="feather-minus-square" 
        width="24" height="24" viewBox="0 0 24 24" fill="none" stroke="currentColor" stroke-width="2" stroke-linecap="round" stroke-linejoin="round" class="feather feather-minus-square"><rect x="3" y="3" width="18" height="18" rx="2" ry="2"></rect><line x1="8" y1="12" x2="16" y2="12"></line>
    </symbol>
    <!-- check square -->
    <symbol id="feather-check-square" 
        width="24" height="24" viewBox="0 0 24 24" fill="none" stroke="currentColor" stroke-width="2" stroke-linecap="round" stroke-linejoin="round" class="feather feather-check-square"><polyline points="9 11 12 14 22 4"></polyline><path d="M21 12v7a2 2 0 0 1-2 2H5a2 2 0 0 1-2-2V5a2 2 0 0 1 2-2h11"></path>
    </symbol>
    <!-- green check square -->
    <symbol id="feather-green-check-square" 
        width="24" height="24" viewBox="0 0 24 24" fill="none" stroke="green" stroke-width="2" stroke-linecap="round" stroke-linejoin="round" class="feather feather-check-square"><polyline points="9 11 12 14 22 4"></polyline><path d="M21 12v7a2 2 0 0 1-2 2H5a2 2 0 0 1-2-2V5a2 2 0 0 1 2-2h11"></path>
    </symbol>
    <!-- x square -->
    <symbol id="feather-x-square" 
        fill="none" stroke-width="2" stroke-linecap="round" stroke-linejoin="round" class="feather feather-x-square"><rect x="3" y="3" width="18" height="18" rx="2" ry="2"></rect><line x1="9" y1="9" x2="15" y2="15"></line><line x1="15" y1="9" x2="9" y2="15"></line>
    </symbol>
    <!-- red x square -->
    <symbol id="feather-red-x-square" 
        width="24" height="24" viewBox="0 0 24 24" fill="none" stroke="firebrick" stroke-width="2" stroke-linecap="round" stroke-linejoin="round" class="feather feather-x-square"><rect x="3" y="3" width="18" height="18" rx="2" ry="2"></rect><line x1="9" y1="9" x2="15" y2="15"></line><line x1="15" y1="9" x2="9" y2="15"></line>
    </symbol>
    <!-- lucide-toggle-right -->
    <symbol id="lucide-toggle-right"
        width="24" height="24" viewBox="0 0 24 24" fill="none" stroke="currentColor" stroke-width="2" stroke-linecap="round" stroke-linejoin="round" class="lucide lucide-toggle-right"><rect width="20" height="12" x="2" y="6" rx="6" ry="6"/><circle cx="16" cy="12" r="2"/>
    </symbol>

    <!-- fast-forward -->
    <symbol id="feather-fast-forward"
        width="24" height="24" viewBox="0 0 24 24" fill="none" stroke="currentColor" stroke-width="2" stroke-linecap="round" stroke-linejoin="round" class="feather feather-fast-forward"><polygon points="13 19 22 12 13 5 13 19"></polygon><polygon points="2 19 11 12 2 5 2 19"></polygon>
    </symbol>
    <!-- rewind -->
    <symbol id="feather-rewind"
        fill="none" stroke="currentColor" stroke-width="2" stroke-linecap="round" stroke-linejoin="round" class="feather feather-rewind"><polygon points="11 19 2 12 11 5 11 19"></polygon><polygon points="22 19 13 12 22 5 22 19"></polygon>
    </symbol>

    <!-- refresh clockwise -->
    <symbol id="feather-refresh-cw"
        width="24" height="24" viewBox="0 0 24 24" fill="none" stroke="currentColor" stroke-width="2" stroke-linecap="round" stroke-linejoin="round" class="feather feather-refresh-cw"><polyline points="23 4 23 10 17 10"></polyline><polyline points="1 20 1 14 7 14"></polyline><path d="M3.51 9a9 9 0 0 1 14.85-3.36L23 10M1 14l4.64 4.36A9 9 0 0 0 20.49 15"></path>
    </symbol>

    <!-- tool -->
    <symbol id="feather-tool" 
        width="24" height="24" viewBox="0 0 24 24" fill="none" stroke="currentColor" stroke-width="2" stroke-linecap="round" stroke-linejoin="round" class="feather feather-tool"><path d="M14.7 6.3a1 1 0 0 0 0 1.4l1.6 1.6a1 1 0 0 0 1.4 0l3.77-3.77a6 6 0 0 1-7.94 7.94l-6.91 6.91a2.12 2.12 0 0 1-3-3l6.91-6.91a6 6 0 0 1 7.94-7.94l-3.76 3.76z"></path>
    </symbol>
    <!-- edit -->
    <symbol id="feather-edit" 
        width="24" height="24" viewBox="0 0 24 24" fill="none" stroke="currentColor" stroke-width="2" stroke-linecap="round" stroke-linejoin="round" class="feather feather-edit"><path d="M11 4H4a2 2 0 0 0-2 2v14a2 2 0 0 0 2 2h14a2 2 0 0 0 2-2v-7"></path><path d="M18.5 2.5a2.121 2.121 0 0 1 3 3L12 15l-4 1 1-4 9.5-9.5z"></path>
    </symbol>

    <!-- eye -->
    <symbol id="feather-eye" 
        width="24" height="24" viewBox="0 0 24 24" fill="none" stroke="currentColor" stroke-width="2" stroke-linecap="round" stroke-linejoin="round" class="feather feather-eye"><path d="M1 12s4-8 11-8 11 8 11 8-4 8-11 8-11-8-11-8z"></path><circle cx="12" cy="12" r="3"></circle>
    </symbol>
    <!-- eye-off -->
    <symbol id="feather-eye-off"
        width="24" height="24" viewBox="0 0 24 24" fill="none" stroke="currentColor" stroke-width="2" stroke-linecap="round" stroke-linejoin="round" class="feather feather-eye-off"><path d="M17.94 17.94A10.07 10.07 0 0 1 12 20c-7 0-11-8-11-8a18.45 18.45 0 0 1 5.06-5.94M9.9 4.24A9.12 9.12 0 0 1 12 4c7 0 11 8 11 8a18.5 18.5 0 0 1-2.16 3.19m-6.72-1.07a3 3 0 1 1-4.24-4.24"></path><line x1="1" y1="1" x2="23" y2="23"></line>
    </symbol>
    <!-- search -->
    <symbol id="feather-search"
        fill="none" stroke-width="2" stroke-linecap="round" stroke-linejoin="round" class="feather feather-search"><circle cx="11" cy="11" r="8"></circle><line x1="21" y1="21" x2="16.65" y2="16.65"></line>
    </symbol>

    <!-- sun -->
    <symbol id="feather-sun" 
        width="24" height="24" viewBox="0 0 24 24" fill="none" stroke="#CCCCCC" stroke-width="2" stroke-linecap="round" stroke-linejoin="round" class="feather feather-sun"><circle cx="12" cy="12" r="5"></circle><line x1="12" y1="1" x2="12" y2="3"></line><line x1="12" y1="21" x2="12" y2="23"></line><line x1="4.22" y1="4.22" x2="5.64" y2="5.64"></line><line x1="18.36" y1="18.36" x2="19.78" y2="19.78"></line><line x1="1" y1="12" x2="3" y2="12"></line><line x1="21" y1="12" x2="23" y2="12"></line><line x1="4.22" y1="19.78" x2="5.64" y2="18.36"></line><line x1="18.36" y1="5.64" x2="19.78" y2="4.22"></line>
    </symbol>
    <!-- moon -->
    <symbol id="feather-moon" 
        width="24" height="24" viewBox="0 0 24 24" fill="none" stroke="#333333" stroke-width="2" stroke-linecap="round" stroke-linejoin="round" class="feather feather-moon"><path d="M21 12.79A9 9 0 1 1 11.21 3 7 7 0 0 0 21 12.79z"></path>
    </symbol>

    <!-- user plus -->
    <symbol id="feather-user-plus" 
        width="24" height="24" viewBox="0 0 24 24" fill="none" stroke="currentColor" stroke-width="2" stroke-linecap="round" stroke-linejoin="round" class="feather feather-user-plus"><path d="M16 21v-2a4 4 0 0 0-4-4H5a4 4 0 0 0-4 4v2"></path><circle cx="8.5" cy="7" r="4"></circle><line x1="20" y1="8" x2="20" y2="14"></line><line x1="23" y1="11" x2="17" y2="11"></line>
    </symbol>
    <!-- user check -->
    <symbol id="feather-user-check" 
        width="24" height="24" viewBox="0 0 24 24" fill="none" stroke="currentColor" stroke-width="2" stroke-linecap="round" stroke-linejoin="round" class="feather feather-user-check"><path d="M16 21v-2a4 4 0 0 0-4-4H5a4 4 0 0 0-4 4v2"></path><circle cx="8.5" cy="7" r="4"></circle><polyline points="17 11 19 13 23 9"></polyline>
    </symbol>
    <!-- user x -->
    <symbol id="feather-user-x" 
        width="24" height="24" viewBox="0 0 24 24" fill="none" stroke="currentColor" stroke-width="2" stroke-linecap="round" stroke-linejoin="round" class="feather feather-user-x"><path d="M16 21v-2a4 4 0 0 0-4-4H5a4 4 0 0 0-4 4v2"></path><circle cx="8.5" cy="7" r="4"></circle><line x1="18" y1="8" x2="23" y2="13"></line><line x1="23" y1="8" x2="18" y2="13"></line>
    </symbol>

    <!-- trending up -->
    <symbol id="feather-trending-up"
        width="24" height="24" viewBox="0 0 24 24" fill="none" stroke="green" stroke-width="2" stroke-linecap="round" stroke-linejoin="round" class="feather feather-trending-up"><polyline points="23 6 13.5 15.5 8.5 10.5 1 18"></polyline><polyline points="17 6 23 6 23 12"></polyline>
    </symbol>
    <!-- trending down -->
    <symbol id="feather-trending-down"
        width="24" height="24" viewBox="0 0 24 24" fill="none" stroke="firebrick" stroke-width="2" stroke-linecap="round" stroke-linejoin="round" class="feather feather-trending-down"><polyline points="23 18 13.5 8.5 8.5 13.5 1 6"></polyline><polyline points="17 18 23 18 23 12"></polyline>
    </symbol>
    <!-- arrow-right-left -->
    <symbol id="lucide-arrow-right-left"
        width="24" height="24" viewBox="0 0 24 24" fill="none" stroke="currentColor" stroke-width="2" stroke-linecap="round" stroke-linejoin="round" class="lucide lucide-arrow-right-left"><path d="m16 3 4 4-4 4"/><path d="M20 7H4"/><path d="m8 21-4-4 4-4"/><path d="M4 17h16"/>
    </symbol>
    <!-- arrow-big-right -->
    <symbol id="lucide-arrow-big-right"
        width="24" height="24" viewBox="0 0 24 24" fill="none" stroke="currentColor" stroke-width="2" stroke-linecap="round" stroke-linejoin="round" class="lucide lucide-arrow-big-right"><path d="M6 9h6V5l7 7-7 7v-4H6V9z"/>
    </symbol>

    <!-- download cloud -->
    <symbol id="feather-download-cloud"
        width="24" height="24" viewBox="0 0 24 24" fill="none" stroke="currentColor" stroke-width="2" stroke-linecap="round" stroke-linejoin="round" class="feather feather-download-cloud"><polyline points="8 17 12 21 16 17"></polyline><line x1="12" y1="12" x2="12" y2="21"></line><path d="M20.88 18.09A5 5 0 0 0 18 9h-1.26A8 8 0 1 0 3 16.29"></path>
    </symbol>
    <!-- upload cloud -->
    <symbol id="feather-upload-cloud"
        width="24" height="24" viewBox="0 0 24 24" fill="none" stroke="currentColor" stroke-width="2" stroke-linecap="round" stroke-linejoin="round" class="feather feather-upload-cloud"><polyline points="16 16 12 12 8 16"></polyline><line x1="12" y1="12" x2="12" y2="21"></line><path d="M20.39 18.39A5 5 0 0 0 18 9h-1.26A8 8 0 1 0 3 16.3"></path><polyline points="16 16 12 12 8 16"></polyline>
    </symbol>

    <!-- trash -->
    <symbol id="feather-trash"
        fill="none" stroke-width="2" stroke-linecap="round" stroke-linejoin="round" class="feather feather-trash-2"><polyline points="3 6 5 6 21 6"></polyline><path d="M19 6v14a2 2 0 0 1-2 2H7a2 2 0 0 1-2-2V6m3 0V4a2 2 0 0 1 2-2h4a2 2 0 0 1 2 2v2"></path><line x1="10" y1="11" x2="10" y2="17"></line><line x1="14" y1="11" x2="14" y2="17"></line>
    </symbol>

    <!-- alert-triangle -->
    <symbol id="feather-alert-triangle"
        fill="none" stroke-width="2" stroke-linecap="round" stroke-linejoin="round" class="feather feather-alert-triangle"><path d="M10.29 3.86L1.82 18a2 2 0 0 0 1.71 3h16.94a2 2 0 0 0 1.71-3L13.71 3.86a2 2 0 0 0-3.42 0z"></path><line x1="12" y1="9" x2="12" y2="13"></line><line x1="12" y1="17" x2="12.01" y2="17"></line>
    </symbol>

    <!-- info -->
    <symbol id="feather-info"
        fill="none" stroke-width="2" stroke-linecap="round" stroke-linejoin="round" class="feather feather-info"><circle cx="12" cy="12" r="10"></circle><line x1="12" y1="16" x2="12" y2="12"></line><line x1="12" y1="8" x2="12.01" y2="8"></line>
    </symbol>

    <!-- pie-chart -->
    <symbol id="feather-pie-chart"
        fill="none" stroke="currentColor" stroke-width="2" stroke-linecap="round" stroke-linejoin="round" class="feather feather-pie-chart"><path d="M21.21 15.89A10 10 0 1 1 8 2.83"></path><path d="M22 12A10 10 0 0 0 12 2v10z"></path>
    </symbol>

    <!-- circle -->
    <symbol id="feather-circle"
        width="24" height="24" viewBox="0 0 24 24" fill="none" stroke="currentColor" stroke-width="2" stroke-linecap="round" stroke-linejoin="round" class="feather feather-circle"><circle cx="12" cy="12" r="10"></circle>
    </symbol>

    <!-- calendar -->
    <symbol id="lucide-calendar"
        width="24" height="24" viewBox="0 0 24 24" fill="none" stroke="currentColor" stroke-width="2" stroke-linecap="round" stroke-linejoin="round" class="lucide lucide-calendar"><path d="M8 2v4"/><path d="M16 2v4"/><rect width="18" height="18" x="3" y="4" rx="2"/><path d="M3 10h18"/>
    </symbol>
    <!-- landmark -->
    <symbol id="lucide-landmark"
        width="24" height="24" viewBox="0 0 24 24" fill="none" stroke="currentColor" stroke-width="2" stroke-linecap="round" stroke-linejoin="round" class="lucide lucide-landmark"><line x1="3" x2="21" y1="22" y2="22"/><line x1="6" x2="6" y1="18" y2="11"/><line x1="10" x2="10" y1="18" y2="11"/><line x1="14" x2="14" y1="18" y2="11"/><line x1="18" x2="18" y1="18" y2="11"/><polygon points="12 2 20 7 4 7"/>
    </symbol>
    <!-- boxes -->
    <symbol id="lucide-boxes"
        width="24" height="24" viewBox="0 0 24 24" fill="none" stroke="currentColor" stroke-width="2" stroke-linecap="round" stroke-linejoin="round" class="lucide lucide-boxes"><path d="M2.97 12.92A2 2 0 0 0 2 14.63v3.24a2 2 0 0 0 .97 1.71l3 1.8a2 2 0 0 0 2.06 0L12 19v-5.5l-5-3-4.03 2.42Z"/><path d="m7 16.5-4.74-2.85"/><path d="m7 16.5 5-3"/><path d="M7 16.5v5.17"/><path d="M12 13.5V19l3.97 2.38a2 2 0 0 0 2.06 0l3-1.8a2 2 0 0 0 .97-1.71v-3.24a2 2 0 0 0-.97-1.71L17 10.5l-5 3Z"/><path d="m17 16.5-5-3"/><path d="m17 16.5 4.74-2.85"/><path d="M17 16.5v5.17"/><path d="M7.97 4.42A2 2 0 0 0 7 6.13v4.37l5 3 5-3V6.13a2 2 0 0 0-.97-1.71l-3-1.8a2 2 0 0 0-2.06 0l-3 1.8Z"/><path d="M12 8 7.26 5.15"/><path d="m12 8 4.74-2.85"/><path d="M12 13.5V8"/>
    </symbol>
    <!-- tag -->
    <symbol id="lucide-tag"
        width="24" height="24" viewBox="0 0 24 24" fill="none" stroke="currentColor" stroke-width="2" stroke-linecap="round" stroke-linejoin="round" class="lucide lucide-tag"><path d="M12.586 2.586A2 2 0 0 0 11.172 2H4a2 2 0 0 0-2 2v7.172a2 2 0 0 0 .586 1.414l8.704 8.704a2.426 2.426 0 0 0 3.42 0l6.58-6.58a2.426 2.426 0 0 0 0-3.42z"/><circle cx="7.5" cy="7.5" r=".5" fill="currentColor"/>
    </symbol>
    <!-- banknote -->
    <symbol id="lucide-banknote"
        width="24" height="24" viewBox="0 0 24 24" fill="none" stroke="currentColor" stroke-width="2" stroke-linecap="round" stroke-linejoin="round" class="lucide lucide-banknote"><rect width="20" height="12" x="2" y="6" rx="2"/><circle cx="12" cy="12" r="2"/><path d="M6 12h.01M18 12h.01"/>
    </symbol>
    <!-- text -->
    <symbol id="lucide-text" 
        width="24" height="24" viewBox="0 0 24 24" fill="none" stroke="currentColor" stroke-width="2" stroke-linecap="round" stroke-linejoin="round" class="lucide lucide-text"><path d="M17 6.1H3"/><path d="M21 12.1H3"/><path d="M15.1 18H3"/>
    </symbol>
    <!-- notebook-pen -->
    <symbol id="lucide-notebook-pen"
        width="24" height="24" viewBox="0 0 24 24" fill="none" stroke="currentColor" stroke-width="2" stroke-linecap="round" stroke-linejoin="round" class="lucide lucide-notebook-pen"><path d="M13.4 2H6a2 2 0 0 0-2 2v16a2 2 0 0 0 2 2h12a2 2 0 0 0 2-2v-7.4"/><path d="M2 6h4"/><path d="M2 10h4"/><path d="M2 14h4"/><path d="M2 18h4"/><path d="M18.4 2.6a2.17 2.17 0 0 1 3 3L16 11l-4 1 1-4Z"/>
    </symbol>
    <!-- wallet -->
    <symbol id="lucide-wallet"
        width="24" height="24" viewBox="0 0 24 24" fill="none" stroke="currentColor" stroke-width="2" stroke-linecap="round" stroke-linejoin="round" class="lucide lucide-wallet"><path d="M19 7V4a1 1 0 0 0-1-1H5a2 2 0 0 0 0 4h15a1 1 0 0 1 1 1v4h-3a2 2 0 0 0 0 4h3a1 1 0 0 0 1-1v-2a1 1 0 0 0-1-1"/><path d="M3 5v14a2 2 0 0 0 2 2h15a1 1 0 0 0 1-1v-4"/>
    </symbol>
    <!-- locate -->
    <symbol id="lucide-locate"
        width="24" height="24" viewBox="0 0 24 24" fill="none" stroke="currentColor" stroke-width="2" stroke-linecap="round" stroke-linejoin="round" class="lucide lucide-locate"><line x1="2" x2="5" y1="12" y2="12"/><line x1="19" x2="22" y1="12" y2="12"/><line x1="12" x2="12" y1="2" y2="5"/><line x1="12" x2="12" y1="19" y2="22"/><circle cx="12" cy="12" r="7"/>
    </symbol>
</svg>
