<svg width="747" height="799" viewBox="0 0 747 799" fill="none" xmlns="http://www.w3.org/2000/svg">
<g clip-path="url(#clip0_2109_244)">
<path d="M399.345 694C590.988 694 746.345 538.643 746.345 347C746.345 155.357 590.988 0 399.345 0C207.702 0 52.3452 155.357 52.3452 347C52.3452 538.643 207.702 694 399.345 694Z" fill="#F2F2F2"/>
<path d="M746.36 656.867C746.36 663.991 584.654 702.601 385.18 702.601C185.706 702.601 24 663.991 24 656.867C24 649.743 185.706 661.558 385.18 661.558C584.654 661.558 746.36 649.743 746.36 656.867Z" fill="#3F3D56"/>
<path opacity="0.1" d="M746.36 656.867C746.36 663.991 584.654 702.601 385.18 702.601C185.706 702.601 24 663.991 24 656.867C24 649.743 185.706 661.558 385.18 661.558C584.654 661.558 746.36 649.743 746.36 656.867Z" fill="black"/>
<path d="M385.18 669.766C584.654 669.766 746.36 663.991 746.36 656.867C746.36 649.743 584.654 643.968 385.18 643.968C185.706 643.968 24 649.743 24 656.867C24 663.991 185.706 669.766 385.18 669.766Z" fill="#3F3D56"/>
<path d="M730.252 653.349V537.255" stroke="#3F3D56" stroke-width="2" stroke-miterlimit="10"/>
<path d="M730.252 553.673C739.319 553.673 746.669 546.322 746.669 537.255C746.669 528.188 739.319 520.838 730.252 520.838C721.185 520.838 713.834 528.188 713.834 537.255C713.834 546.322 721.185 553.673 730.252 553.673Z" fill="#3F3D56"/>
<path d="M730.252 608.806C730.252 608.806 727.907 558.363 679.827 564.227Z" fill="#3F3D56"/>
<path d="M66.8418 662.004V280" stroke="#3F3D56" stroke-width="2" stroke-miterlimit="10"/>
<path d="M66.8418 296.234C75.9088 296.234 83.2591 288.884 83.2591 279.817C83.2591 270.75 75.9088 263.399 66.8418 263.399C57.7748 263.399 50.4246 270.75 50.4246 279.817C50.4246 288.884 57.7748 296.234 66.8418 296.234Z" fill="#3F3D56"/>
<path d="M16.4173 576.399C25.4843 576.399 32.8345 569.049 32.8345 559.982C32.8345 550.915 25.4843 543.565 16.4173 543.565C7.35026 543.565 0 550.915 0 559.982C0 569.049 7.35026 576.399 16.4173 576.399Z" fill="#3F3D56"/>
<path d="M66.8417 363.677C66.8417 363.677 64.4964 313.234 16.4172 319.097Z" fill="#3F3D56"/>
<path d="M66.8417 506.677C66.8417 506.677 64.4964 456.234 16.4172 462.097Z" fill="#3F3D56"/>
<path d="M66.8417 657.491C66.8417 657.491 77.3957 564.673 16.4172 559.982" stroke="#3F3D56" stroke-width="2" stroke-miterlimit="10"/>
<path d="M117.273 576.399C126.34 576.399 133.691 569.049 133.691 559.982C133.691 550.915 126.34 543.565 117.273 543.565C108.206 543.565 100.856 550.915 100.856 559.982C100.856 569.049 108.206 576.399 117.273 576.399Z" fill="#3F3D56"/>
<path d="M66.849 657.491C66.849 657.491 56.295 564.673 117.273 559.982" stroke="#3F3D56" stroke-width="2" stroke-miterlimit="10"/>
<path d="M118.273 422.399C127.34 422.399 134.691 415.049 134.691 405.982C134.691 396.915 127.34 389.565 118.273 389.565C109.206 389.565 101.856 396.915 101.856 405.982C101.856 415.049 109.206 422.399 118.273 422.399Z" fill="#3F3D56"/>
<path d="M67.849 503.491C67.849 503.491 57.295 410.673 118.273 405.982" stroke="#3F3D56" stroke-width="2" stroke-miterlimit="10"/>
<path d="M603.979 651.004V418.817" stroke="#3F3D56" stroke-width="2" stroke-miterlimit="10"/>
<path d="M603.978 435.234C613.045 435.234 620.396 427.884 620.396 418.817C620.396 409.75 613.045 402.399 603.978 402.399C594.911 402.399 587.561 409.75 587.561 418.817C587.561 427.884 594.911 435.234 603.978 435.234Z" fill="#3F3D56"/>
<path d="M603.979 485.677C603.979 485.677 606.324 435.234 654.403 441.097Z" fill="#3F3D56"/>
<path d="M603.978 646.491C603.978 646.491 593.424 553.673 654.403 548.982" stroke="#3F3D56" stroke-width="2" stroke-miterlimit="10"/>
<path d="M654.403 565.399C663.47 565.399 670.82 558.049 670.82 548.982C670.82 539.915 663.47 532.565 654.403 532.565C645.336 532.565 637.986 539.915 637.986 548.982C637.986 558.049 645.336 565.399 654.403 565.399Z" fill="#3F3D56"/>
<path d="M584.345 242C619.691 242 648.345 213.346 648.345 178C648.345 142.654 619.691 114 584.345 114C548.999 114 520.345 142.654 520.345 178C520.345 213.346 548.999 242 584.345 242Z" fill="#FF6584"/>
<path d="M478.742 622.937C522.372 622.937 557.742 587.567 557.742 543.937C557.742 500.306 522.372 464.937 478.742 464.937C435.111 464.937 399.742 500.306 399.742 543.937C399.742 587.567 435.111 622.937 478.742 622.937Z" fill="#ACA386"/>
<path d="M490.742 648.937H514.742V605.937H490.742V648.937Z" fill="#ACA386"/>
<path d="M442.742 648.937H466.742V605.937H442.742V648.937Z" fill="#ACA386"/>
<path d="M453.492 659.932C463.058 654.409 469.133 647.024 467.062 643.436C464.991 639.849 455.558 641.418 445.992 646.941C436.426 652.464 430.35 659.849 432.421 663.436C434.492 667.024 443.926 665.454 453.492 659.932Z" fill="#ACA386"/>
<path d="M500.492 659.932C510.058 654.409 516.133 647.024 514.062 643.436C511.991 639.849 502.558 641.418 492.992 646.941C483.426 652.464 477.35 659.849 479.421 663.436C481.492 667.024 490.926 665.454 500.492 659.932Z" fill="#ACA386"/>
<path d="M476.742 550.937C491.654 550.937 503.742 538.848 503.742 523.937C503.742 509.025 491.654 496.937 476.742 496.937C461.83 496.937 449.742 509.025 449.742 523.937C449.742 538.848 461.83 550.937 476.742 550.937Z" fill="white"/>
<path d="M467.546 521.437C472.517 521.437 476.546 517.407 476.546 512.437C476.546 507.466 472.517 503.437 467.546 503.437C462.576 503.437 458.546 507.466 458.546 512.437C458.546 517.407 462.576 521.437 467.546 521.437Z" fill="#3F3D56"/>
<path d="M445.841 532.323C448.535 526.027 434.462 513.964 414.406 505.38C394.351 496.796 375.908 494.942 373.213 501.238C370.518 507.534 384.592 519.596 404.648 528.18C424.703 536.764 443.146 538.619 445.841 532.323Z" fill="#ACA386"/>
<path d="M593.841 585.323C596.535 579.027 582.462 566.964 562.406 558.38C542.351 549.796 523.908 547.942 521.213 554.238C518.518 560.534 532.592 572.596 552.648 581.18C572.703 589.764 591.146 591.619 593.841 585.323Z" fill="#ACA386"/>
<path d="M494.546 578.437C494.546 583.21 492.65 587.789 489.274 591.164C485.899 594.54 481.32 596.437 476.546 596.437C471.772 596.437 467.194 594.54 463.818 591.164C460.443 587.789 458.546 583.21 458.546 578.437C458.546 568.495 466.605 566.437 476.546 566.437C486.488 566.437 494.546 568.495 494.546 578.437Z" fill="white"/>
<path d="M384.583 520.349V404.255" stroke="#6C63FF" stroke-width="2" stroke-miterlimit="10"/>
<path d="M384.583 420.673C393.65 420.673 401 413.322 401 404.255C401 395.188 393.65 387.838 384.583 387.838C375.516 387.838 368.166 395.188 368.166 404.255C368.166 413.322 375.516 420.673 384.583 420.673Z" fill="#CCC6B4"/>
<path d="M384.583 475.806C384.583 475.806 382.237 425.363 334.158 431.227Z" fill="#CCC6B4"/>
<path d="M230.233 440.861L236.596 455.861H242.233L234.233 417.861C234.233 393.471 222.46 372.861 198.069 372.861C189.891 372.861 182.047 376.11 176.264 381.893C170.481 387.676 167.233 395.52 167.233 403.698V440.966C167.233 442.922 167.618 444.859 168.366 446.666C169.115 448.473 170.212 450.115 171.595 451.498C172.979 452.882 174.621 453.979 176.428 454.727C178.235 455.476 180.172 455.861 182.128 455.861H225.858L230.233 440.861Z" fill="#2F2E41"/>
<path d="M256.845 591.711C256.845 591.711 339.845 581.711 349.845 599.711C359.845 617.711 352.845 632.711 339.845 641.711C326.845 650.711 254.845 691.711 254.845 691.711L248.845 701.711L235.845 699.711L222.845 687.711L228.845 676.711C228.845 676.711 278.845 646.711 279.845 638.711C279.845 638.711 233.845 659.711 228.845 655.711C223.845 651.711 167.845 632.711 176.845 621.711C185.845 610.711 208.845 594.711 208.845 594.711L256.845 591.711Z" fill="#2F2E41"/>
<path opacity="0.1" d="M256.845 591.711C256.845 591.711 339.845 581.711 349.845 599.711C359.845 617.711 352.845 632.711 339.845 641.711C326.845 650.711 254.845 691.711 254.845 691.711L248.845 701.711L235.845 699.711L222.845 687.711L228.845 676.711C228.845 676.711 278.845 646.711 279.845 638.711C279.845 638.711 233.845 659.711 228.845 655.711C223.845 651.711 167.845 632.711 176.845 621.711C185.845 610.711 208.845 594.711 208.845 594.711L256.845 591.711Z" fill="black"/>
<path d="M245.845 692.71C245.845 692.71 260.845 689.71 257.845 699.71C254.845 709.71 252.845 729.71 257.845 734.71C262.845 739.71 278.845 761.71 262.845 763.71C246.845 765.71 229.845 745.71 229.845 745.71C229.845 745.71 218.845 713.71 210.845 710.71C202.845 707.71 194.845 695.71 198.845 692.71C202.845 689.71 226.845 670.71 228.845 671.71C230.845 672.71 229.845 683.71 229.845 683.71C229.845 683.71 237.845 696.71 245.845 692.71Z" fill="#2F2E41"/>
<path d="M247.345 479.211L284.345 505.211C284.345 505.211 312.345 476.211 312.345 459.211C312.345 442.211 327.345 410.211 334.345 423.211C341.345 436.211 326.345 467.211 326.345 467.211L298.345 533.211C298.345 533.211 282.345 536.211 273.345 529.211C264.345 522.211 239.345 508.211 239.345 508.211L247.345 479.211Z" fill="#FFB9B9"/>
<path d="M210.845 435.71C226.309 435.71 238.845 423.174 238.845 407.71C238.845 392.246 226.309 379.71 210.845 379.71C195.381 379.71 182.845 392.246 182.845 407.71C182.845 423.174 195.381 435.71 210.845 435.71Z" fill="#FFB9B9"/>
<path d="M225.345 427.21C225.345 427.21 215.345 453.21 219.345 459.21C223.345 465.21 228.345 465.21 232.345 467.21C234.345 468.21 255.345 476.21 255.345 482.21C255.249 486.066 254.219 489.84 252.345 493.21L249.345 510.21L224.345 526.21L191.345 522.21L166.345 508.21C166.345 508.21 162.345 471.21 173.345 465.21C184.345 459.21 197.345 445.21 196.345 440.21C195.345 435.21 194.345 423.21 194.345 423.21L225.345 427.21Z" fill="#FFB9B9"/>
<path d="M267.345 489.21C267.345 489.21 252.345 504.21 252.345 506.21C252.345 508.21 262.345 517.21 255.345 529.21C248.345 541.21 248.345 571.21 248.345 571.21L224.345 576.21L179.345 572.21L172.345 503.21C172.345 503.21 190.345 506.21 194.345 509.21C198.345 512.21 209.345 505.21 217.345 505.21C225.345 505.21 248.345 501.21 248.345 501.21L246.345 493.21L254.345 479.21L267.345 489.21Z" fill="#CCC6B4"/>
<path d="M210.845 595.71C210.845 595.71 311.845 550.71 319.845 579.71C327.845 608.71 328.845 678.71 328.845 678.71C328.845 678.71 333.845 726.71 339.845 731.71C345.845 736.71 339.845 751.71 339.845 751.71L324.845 756.71L310.845 750.71L304.845 734.71C304.845 734.71 302.845 698.71 294.845 680.71C286.845 662.71 286.845 620.71 287.845 618.71C287.845 618.71 248.845 666.71 210.845 663.71C172.845 660.71 167.345 652.21 167.345 652.21C167.345 652.21 185.845 595.71 210.845 595.71Z" fill="#2F2E41"/>
<path d="M333.845 736.71C333.845 736.71 337.845 722.71 346.845 733.71C355.845 744.71 396.845 761.71 397.845 763.71C398.845 765.71 416.845 776.71 395.845 791.71C374.845 806.71 346.845 791.71 346.845 791.71C346.845 791.71 322.845 783.71 316.845 784.71C310.845 785.71 298.845 779.71 297.845 774.71C296.845 769.71 299.207 725.755 304.526 730.233C309.845 734.71 315.845 746.71 315.845 746.71C315.845 746.71 335.845 751.71 333.845 736.71Z" fill="#2F2E41"/>
<path d="M244.845 568.71C244.845 568.71 250.345 568.21 249.345 581.21C249.345 581.21 214.845 591.71 208.845 600.71C202.845 609.71 176.845 636.71 172.845 655.71C172.845 655.71 143.845 648.71 159.845 598.71L178.657 557.925C178.657 557.925 189.845 580.71 244.845 568.71Z" fill="#2F2E41"/>
<path d="M221.308 593.015L187.345 578.21C187.345 578.21 171.345 545.21 171.345 529.21C171.151 520.004 170.442 510.816 169.22 501.688C168.464 495.948 169.123 490.109 171.139 484.681C173.155 479.254 176.467 474.401 180.787 470.545C184.318 467.457 188.283 465.21 192.345 465.21C192.345 465.21 204.345 487.21 202.345 507.21C200.345 527.21 205.345 557.21 205.345 557.21L250.532 581.395" fill="#FFB9B9"/>
<path opacity="0.1" d="M221.308 593.015L187.345 578.21C187.345 578.21 171.345 545.21 171.345 529.21C171.345 520.877 206.345 496.21 204.345 516.21C202.345 536.21 205.345 557.21 205.345 557.21L250.532 581.395" fill="black"/>
<path d="M205.345 514.211L202.157 527.711L184.345 536.211H169.345L162.345 504.211C162.345 504.211 174.704 501.597 181.025 504.904C187.345 508.211 202.187 509.002 202.187 509.002L205.345 514.211Z" fill="#CCC6B4"/>
<path d="M221.936 374.199C216.51 372.823 203.646 372.861 201.764 372.861C197.229 372.861 192.739 373.755 188.55 375.49C184.36 377.225 180.553 379.769 177.347 382.975C174.14 386.182 171.597 389.989 169.861 394.178C168.126 398.368 167.233 402.858 167.233 407.393L154.233 455.861H179.537L184.233 437.861L190.899 455.861H203.638L204.733 445.045L209.044 455.861H223.233C212.606 431.817 206.953 409.901 220.915 396.374C230.342 397.658 238.293 395.133 239.589 390.021C241.082 384.132 233.178 377.048 221.936 374.199Z" fill="#2F2E41"/>
<path d="M555.708 544.272C555.708 564.541 547.657 583.979 533.327 598.313C518.997 612.647 499.561 620.702 479.293 620.708C459.024 620.713 439.583 612.668 425.246 598.342C410.908 584.016 402.848 564.581 402.837 544.313C402.826 524.045 410.866 504.602 425.188 490.26C439.51 475.919 458.942 467.853 479.211 467.837C499.479 467.82 518.924 475.855 533.27 490.174C547.615 504.492 555.686 523.922 555.708 544.19" fill="#ACA386"/>
<path d="M555.708 544.272C555.708 564.541 547.657 583.979 533.327 598.313C518.997 612.647 499.561 620.702 479.293 620.708C459.024 620.713 439.583 612.668 425.246 598.342C410.908 584.016 402.848 564.581 402.837 544.313C402.826 524.045 410.866 504.602 425.188 490.26C439.51 475.919 458.942 467.853 479.211 467.837C499.479 467.82 518.924 475.855 533.27 490.174C547.615 504.492 555.686 523.922 555.708 544.19" stroke="#ACA386" stroke-width="0.566929" stroke-linecap="round" stroke-linejoin="round"/>
<path d="M474.905 525.543C474.905 534.925 471.129 543.923 464.408 550.558C457.687 557.193 448.571 560.922 439.065 560.924C429.559 560.927 420.44 557.203 413.716 550.571C406.991 543.94 403.211 534.944 403.206 525.562C403.2 516.18 406.971 507.18 413.689 500.542C420.406 493.903 429.52 490.17 439.026 490.162C448.533 490.155 457.653 493.874 464.381 500.502C471.109 507.129 474.895 516.123 474.905 525.505" fill="#F5F3F0"/>
<path d="M474.905 525.543C474.905 534.925 471.129 543.923 464.408 550.558C457.687 557.193 448.571 560.922 439.065 560.924C429.559 560.927 420.44 557.203 413.716 550.571C406.991 543.94 403.211 534.944 403.206 525.562C403.2 516.18 406.971 507.18 413.689 500.542C420.406 493.903 429.52 490.17 439.026 490.162C448.533 490.155 457.653 493.874 464.381 500.502C471.109 507.129 474.895 516.123 474.905 525.505" stroke="#ACA386" stroke-width="0.40063" stroke-linecap="round" stroke-linejoin="round"/>
<path d="M552.841 525.308C552.841 534.696 549.063 543.699 542.338 550.338C535.612 556.977 526.491 560.708 516.979 560.711C507.466 560.713 498.343 556.987 491.614 550.351C484.885 543.716 481.102 534.714 481.097 525.327C481.092 515.939 484.865 506.933 491.587 500.291C498.308 493.648 507.428 489.912 516.94 489.905C526.452 489.897 535.578 493.618 542.311 500.25C549.043 506.882 552.831 515.882 552.841 525.27" fill="#F5F3F0"/>
<path d="M552.841 525.308C552.841 534.696 549.063 543.699 542.338 550.338C535.612 556.977 526.491 560.708 516.979 560.711C507.466 560.713 498.343 556.987 491.614 550.351C484.885 543.716 481.102 534.714 481.097 525.327C481.092 515.939 484.865 506.933 491.587 500.291C498.308 493.648 507.428 489.912 516.94 489.905C526.452 489.897 535.578 493.618 542.311 500.25C549.043 506.882 552.831 515.882 552.841 525.27" stroke="#ACA386" stroke-width="0.40063" stroke-linecap="round" stroke-linejoin="round"/>
<path d="M496.704 558.857C496.158 558.874 495.624 558.705 495.187 558.378C494.751 558.051 494.439 557.584 494.302 557.056C494.273 555.752 493.858 554.486 493.11 553.418C492.362 552.35 491.315 551.526 490.1 551.053C486.808 548.973 483.038 547.772 479.15 547.561C475.262 547.351 471.385 548.14 467.887 549.852C466.284 550.32 464.857 551.256 463.788 552.539C462.718 553.822 462.056 555.395 461.884 557.056C461.884 558.857 461.284 558.857 460.083 559.457C456.103 560.594 452.683 563.159 450.477 566.661C448.976 568.369 448.052 570.507 447.837 572.771C447.621 575.034 448.125 577.308 449.277 579.269C450.162 581.154 451.636 582.701 453.477 583.675C455.318 584.65 457.426 584.999 459.483 584.672H462.484C462.484 588.274 461.884 592.476 461.884 596.078C461.884 599.68 464.886 606.884 470.289 606.284C473.341 605.973 476.357 605.37 479.294 604.483C479.894 603.883 479.894 603.883 479.894 604.483C481.747 605.674 483.859 606.405 486.052 606.614C488.245 606.823 490.457 606.504 492.501 605.684C494.107 604.564 495.356 603.007 496.101 601.198C496.846 599.388 497.055 597.403 496.704 595.478C496.704 591.275 496.103 587.673 496.103 583.471H498.505C499.996 583.519 501.478 583.218 502.833 582.593C504.189 581.968 505.379 581.036 506.312 579.871C507.244 578.706 507.892 577.339 508.204 575.88C508.516 574.421 508.484 572.909 508.11 571.464C507.563 568.513 506.207 565.771 504.193 563.545C502.179 561.319 499.586 559.696 496.704 558.857ZM476.893 599.68C476.893 601.481 475.091 603.282 472.09 603.282C469.088 603.282 466.086 602.082 466.086 599.68C465.787 594.682 465.787 589.67 466.086 584.672H466.687L477.493 579.869C477.493 587.073 477.493 593.076 476.893 599.68ZM490.1 602.682C487.884 603.047 485.611 602.84 483.496 602.082C482.896 602.082 481.695 600.281 481.695 599.68V580.469L491.301 584.071C491.458 584.071 491.615 584.102 491.76 584.163C491.906 584.223 492.038 584.312 492.15 584.423C492.261 584.535 492.35 584.667 492.41 584.813C492.47 584.958 492.501 585.114 492.501 585.272C492.802 589.469 492.802 593.682 492.501 597.879C492.501 598.811 492.284 599.73 491.868 600.564C491.451 601.398 490.846 602.123 490.1 602.682ZM503.908 576.867C502.107 579.869 499.105 579.869 494.903 580.469L486.498 578.068C483.959 576.887 481.193 576.275 478.393 576.275C475.593 576.275 472.827 576.887 470.289 578.068L459.483 580.469C458.206 580.877 456.823 580.796 455.602 580.241C454.382 579.687 453.411 578.698 452.879 577.468C452.112 576.065 451.761 574.473 451.868 572.878C451.974 571.283 452.533 569.751 453.479 568.462L457.081 564.86C458.242 563.891 459.678 563.311 461.187 563.203C462.695 563.096 464.199 563.465 465.486 564.26C469.56 566.879 474.346 568.169 479.185 567.954C484.023 567.739 488.676 566.029 492.501 563.059H495.503C497.884 563.896 500.114 565.113 502.107 566.661C503.291 568.047 504.082 569.724 504.399 571.519C504.716 573.313 504.546 575.16 503.908 576.867Z" fill="#1E1C15"/>
<path d="M512.735 527.214C514.218 527.216 515.685 526.916 517.048 526.333C518.411 525.75 519.642 524.896 520.664 523.822C521.686 522.749 522.48 521.478 522.996 520.089C523.512 518.699 523.74 517.218 523.666 515.738C523.667 514.327 523.382 512.931 522.826 511.634C522.271 510.337 521.456 509.167 520.434 508.195C519.411 507.224 518.201 506.471 516.877 505.982C515.554 505.494 514.144 505.28 512.735 505.354C509.837 505.354 507.057 506.506 505.007 508.556C502.957 510.605 501.805 513.385 501.805 516.284C501.805 519.183 502.957 521.963 505.007 524.013C507.057 526.063 509.837 527.214 512.735 527.214ZM507.817 510.273C508.248 510.273 508.674 510.358 509.072 510.522C509.47 510.687 509.831 510.929 510.136 511.233C510.44 511.538 510.682 511.899 510.846 512.297C511.011 512.695 511.096 513.121 511.096 513.552C511.201 514.004 511.189 514.475 511.061 514.921C510.933 515.367 510.694 515.773 510.366 516.101C510.038 516.429 509.632 516.668 509.186 516.796C508.74 516.924 508.269 516.936 507.817 516.831C507.034 516.842 506.273 516.572 505.672 516.071C505.071 515.57 504.668 514.87 504.538 514.098C504.528 513.172 504.856 512.273 505.459 511.569C506.062 510.866 506.9 510.405 507.817 510.273Z" fill="#1E1C15"/>
<path d="M419.781 517.554C419.702 519.01 419.931 520.466 420.452 521.828C420.974 523.19 421.776 524.426 422.807 525.458C423.838 526.489 425.075 527.291 426.437 527.812C427.799 528.334 429.255 528.562 430.711 528.484C432.147 528.484 433.568 528.201 434.894 527.652C436.22 527.102 437.425 526.297 438.44 525.282C439.455 524.267 440.26 523.062 440.809 521.736C441.359 520.41 441.641 518.989 441.641 517.554C441.643 516.071 441.343 514.604 440.76 513.241C440.177 511.878 439.323 510.647 438.249 509.625C437.176 508.603 435.905 507.809 434.516 507.293C433.126 506.777 431.645 506.549 430.165 506.623C428.754 506.622 427.358 506.907 426.061 507.463C424.764 508.018 423.594 508.833 422.622 509.855C421.651 510.878 420.898 512.088 420.409 513.412C419.921 514.735 419.707 516.145 419.781 517.554ZM425.246 518.1C424.474 517.97 423.775 517.567 423.273 516.966C422.772 516.365 422.503 515.604 422.514 514.821C422.514 513.182 424.7 511.542 426.339 511.542C426.773 511.608 427.188 511.76 427.562 511.99C427.935 512.219 428.259 512.521 428.513 512.878C428.768 513.234 428.949 513.638 429.045 514.066C429.141 514.494 429.15 514.936 429.072 515.368C428.525 517.554 427.432 518.1 425.246 518.1Z" fill="#1E1C15"/>
<path d="M469.596 602.886C467.802 602.404 466.599 601.479 466.273 600.333C466.046 599.535 465.882 590.942 466.028 587.494C466.145 584.726 466.15 584.696 466.504 584.696C466.701 584.696 469.228 583.644 472.121 582.359L477.381 580.021L477.429 582.24C477.535 587.083 477.025 599.172 476.658 600.511C476.424 601.365 475.347 602.388 474.248 602.8C473.168 603.204 470.931 603.245 469.596 602.886Z" fill="#F5F3F0" stroke="#ACA386" stroke-width="0.0180957" stroke-linecap="round" stroke-linejoin="round"/>
<path d="M486.679 602.727C486.419 602.691 485.556 602.511 484.76 602.327C483.177 601.961 482.698 601.618 482.046 600.38C481.72 599.762 481.715 599.6 481.715 590.158C481.715 582.549 481.756 580.58 481.912 580.639C482.02 580.68 484.351 581.551 487.091 582.573C490.633 583.895 492.134 584.527 492.284 584.761C492.564 585.197 492.689 594.486 492.454 597.374C492.311 599.123 492.221 599.549 491.817 600.368C491.558 600.893 491.04 601.621 490.667 601.985C489.99 602.647 489.988 602.647 488.571 602.72C487.791 602.76 486.939 602.763 486.679 602.727Z" fill="#F5F3F0" stroke="#ACA386" stroke-width="0.0180957" stroke-linecap="round" stroke-linejoin="round"/>
</g>
<defs>
<clipPath id="clip0_2109_244">
<rect width="746.669" height="798.377" fill="white"/>
</clipPath>
</defs>
</svg>
