<svg width="827" height="335" viewBox="0 0 827 335" fill="none" xmlns="http://www.w3.org/2000/svg">
<g clip-path="url(#clip0_2109_357)">
<path d="M79.5965 290.018L78.2953 288.5C89.3045 279.065 103.006 267.323 108.135 251.803C113.19 236.504 109.387 218.034 98.2098 203.601C88.6975 191.317 74.0092 181.644 55.7331 175.628C52.1282 174.441 48.3854 173.387 44.7657 172.367C36.0164 169.902 26.9692 167.354 18.957 162.696C7.92165 156.281 -2.10177 143.68 0.382051 129.99C1.22526 125.61 3.27976 121.553 6.3123 118.282C9.34485 115.01 13.2339 112.655 17.5379 111.482L18.0699 113.411C14.1268 114.484 10.5635 116.641 7.78438 119.637C5.00527 122.634 3.12166 126.349 2.34729 130.361C0.039201 143.083 9.53067 154.903 19.9622 160.967C27.7553 165.497 36.6785 168.011 45.3079 170.442C48.9481 171.467 52.7125 172.528 56.3588 173.728C75.0151 179.87 90.0338 189.776 99.791 202.376C111.37 217.329 115.295 236.509 110.034 252.431C104.73 268.479 90.7944 280.422 79.5965 290.018Z" fill="#F1F1F1"/>
<path d="M32.1539 119.109C41.6009 117.068 48.4556 111.693 47.4642 107.105C46.4728 102.516 38.0108 100.451 28.5638 102.492C19.1168 104.533 12.2622 109.908 13.2536 114.496C14.2449 119.085 22.7069 121.15 32.1539 119.109Z" fill="#F1F1F1"/>
<path d="M57.6645 170.889C67.1115 168.848 73.9661 163.474 72.9747 158.885C71.9833 154.297 63.5213 152.232 54.0743 154.273C44.6273 156.314 37.7727 161.688 38.7641 166.277C39.7555 170.865 48.2175 172.93 57.6645 170.889Z" fill="#F1F1F1"/>
<path d="M28.2868 186.444C37.7338 184.403 44.5884 179.029 43.5971 174.44C42.6057 169.852 34.1437 167.787 24.6967 169.828C15.2497 171.869 8.39505 177.243 9.38643 181.832C10.3778 186.42 18.8398 188.485 28.2868 186.444Z" fill="#F1F1F1"/>
<path d="M274.226 178.204H272.226V184.204H274.226V178.204Z" fill="#E5E5E5"/>
<path d="M274.226 312.044H272.226V299.259H274.226V312.044ZM274.226 286.476H272.226V273.692H274.226V286.476ZM274.226 260.907H272.226V248.124H274.226V260.907ZM274.226 235.34H272.226V222.555H274.226V235.34ZM274.226 209.772H272.226V196.988H274.226V209.772Z" fill="#E5E5E5"/>
<path d="M274.226 324.828H272.226V330.828H274.226V324.828Z" fill="#E5E5E5"/>
<path d="M493.226 178.204H491.226V184.204H493.226V178.204Z" fill="#E5E5E5"/>
<path d="M493.226 312.044H491.226V299.259H493.226V312.044ZM493.226 286.476H491.226V273.692H493.226V286.476ZM493.226 260.907H491.226V248.124H493.226V260.907ZM493.226 235.34H491.226V222.555H493.226V235.34ZM493.226 209.772H491.226V196.988H493.226V209.772Z" fill="#E5E5E5"/>
<path d="M493.226 324.828H491.226V330.828H493.226V324.828Z" fill="#E5E5E5"/>
<path d="M603.695 60.8279H601.695V66.8279H603.695V60.8279Z" fill="#E5E5E5"/>
<path d="M603.695 312.542H601.695V300.257H603.695V312.542ZM603.695 287.971H601.695V275.685H603.695V287.971ZM603.695 263.399H601.695V251.113H603.695V263.399ZM603.695 238.828H601.695V226.542H603.695V238.828ZM603.695 214.257H601.695V201.97H603.695V214.257ZM603.695 189.685H601.695V177.399H603.695V189.685ZM603.695 165.114H601.695V152.828H603.695V165.114ZM603.695 140.542H601.695V128.257H603.695V140.542ZM603.695 115.97H601.695V103.685H603.695V115.97ZM603.695 91.3992H601.695V79.1135H603.695V91.3992Z" fill="#E5E5E5"/>
<path d="M603.695 324.828H601.695V330.828H603.695V324.828Z" fill="#E5E5E5"/>
<path d="M713.063 12.8279H711.063V18.8279H713.063V12.8279Z" fill="#E5E5E5"/>
<path d="M713.063 312.588H711.063V300.348H713.063V312.588ZM713.063 288.108H711.063V275.868H713.063V288.108ZM713.063 263.628H711.063V251.388H713.063V263.628ZM713.063 239.148H711.063V226.908H713.063V239.148ZM713.063 214.668H711.063V202.428H713.063V214.668ZM713.063 190.188H711.063V177.948H713.063V190.188ZM713.063 165.708H711.063V153.468H713.063V165.708ZM713.063 141.228H711.063V128.988H713.063V141.228ZM713.063 116.748H711.063V104.508H713.063V116.748ZM713.063 92.2681H711.063V80.0281H713.063V92.2681ZM713.063 67.7881H711.063V55.5481H713.063V67.7881ZM713.063 43.3081H711.063V31.0681H713.063V43.3081Z" fill="#E5E5E5"/>
<path d="M713.063 324.828H711.063V330.828H713.063V324.828Z" fill="#E5E5E5"/>
<path d="M384.226 97.8279H382.226V103.828H384.226V97.8279Z" fill="#E5E5E5"/>
<path d="M384.226 313.197H382.226V301.565H384.226V313.197ZM384.226 289.933H382.226V278.302H384.226V289.933ZM384.226 266.67H382.226V255.039H384.226V266.67ZM384.226 243.407H382.226V231.776H384.226V243.407ZM384.226 220.144H382.226V208.512H384.226V220.144ZM384.226 196.881H382.226V185.249H384.226V196.881ZM384.226 173.617H382.226V161.986H384.226V173.617ZM384.226 150.354H382.226V138.723H384.226V150.354ZM384.226 127.091H382.226V115.46H384.226V127.091Z" fill="#E5E5E5"/>
<path d="M384.226 324.828H382.226V330.828H384.226V324.828Z" fill="#E5E5E5"/>
<path d="M823.991 333.614H161.871C161.321 333.614 160.794 333.396 160.405 333.007C160.017 332.618 159.798 332.091 159.798 331.542V14.1872C159.8 13.6384 160.018 13.1125 160.407 12.7249C160.795 12.3373 161.322 12.1196 161.871 12.1196C162.419 12.1196 162.946 12.3373 163.334 12.7249C163.723 13.1125 163.941 13.6384 163.943 14.1872V329.47H823.991C824.264 329.469 824.534 329.522 824.786 329.626C825.038 329.73 825.267 329.882 825.459 330.075C825.652 330.267 825.805 330.496 825.91 330.748C826.014 330.999 826.068 331.269 826.068 331.542C826.068 331.814 826.014 332.084 825.91 332.336C825.805 332.587 825.652 332.816 825.459 333.009C825.267 333.201 825.038 333.354 824.786 333.457C824.534 333.561 824.264 333.614 823.991 333.614Z" fill="#3F3D56"/>
<path d="M493.134 180.989L383.049 98.5339L274.468 179.862L271.983 176.545L383.049 93.3549L492.61 175.418L601.484 56.2739L601.921 56.0969L711.744 11.8479L713.293 15.6929L603.907 59.7649L493.134 180.989Z" fill="#3F3D56"/>
<path d="M273.226 190.637C280.092 190.637 285.658 185.07 285.658 178.204C285.658 171.337 280.092 165.771 273.226 165.771C266.359 165.771 260.793 171.337 260.793 178.204C260.793 185.07 266.359 190.637 273.226 190.637Z" fill="#CCC6B4"/>
<path d="M383.049 109.823C389.915 109.823 395.482 104.257 395.482 97.3903C395.482 90.5239 389.915 84.9575 383.049 84.9575C376.182 84.9575 370.616 90.5239 370.616 97.3903C370.616 104.257 376.182 109.823 383.049 109.823Z" fill="#CCC6B4"/>
<path d="M492.872 190.637C499.739 190.637 505.305 185.07 505.305 178.204C505.305 171.337 499.739 165.771 492.872 165.771C486.006 165.771 480.439 171.337 480.439 178.204C480.439 185.07 486.006 190.637 492.872 190.637Z" fill="#E5E5E5"/>
<path d="M489.872 234.637C496.739 234.637 502.305 229.07 502.305 222.204C502.305 215.337 496.739 209.771 489.872 209.771C483.006 209.771 477.439 215.337 477.439 222.204C477.439 229.07 483.006 234.637 489.872 234.637Z" fill="#CCC6B4"/>
<path d="M602.695 70.4526C609.562 70.4526 615.128 64.8862 615.128 58.0197C615.128 51.1533 609.562 45.5869 602.695 45.5869C595.829 45.5869 590.262 51.1533 590.262 58.0197C590.262 64.8862 595.829 70.4526 602.695 70.4526Z" fill="#CCC6B4"/>
<path d="M712.518 24.8656C719.385 24.8656 724.951 19.2993 724.951 12.4328C724.951 5.56636 719.385 0 712.518 0C705.652 0 700.086 5.56636 700.086 12.4328C700.086 19.2993 705.652 24.8656 712.518 24.8656Z" fill="#CCC6B4"/>
<path d="M158.423 243.299C162.669 232.19 163.284 222.104 159.796 220.771C156.309 219.438 150.04 227.363 145.794 238.472C141.548 249.581 140.933 259.667 144.42 261C147.908 262.333 154.177 254.408 158.423 243.299Z" fill="#ACA386"/>
<path d="M112.301 316.475C136.087 316.475 155.368 297.193 155.368 273.407C155.368 249.622 136.087 230.34 112.301 230.34C88.5157 230.34 69.2338 249.622 69.2338 273.407C69.2338 297.193 88.5157 316.475 112.301 316.475Z" fill="#ACA386"/>
<path d="M105.759 307.207H92.6755V330.649H105.759V307.207Z" fill="#ACA386"/>
<path d="M131.927 307.207H118.843V330.649H131.927V307.207Z" fill="#ACA386"/>
<path d="M103.579 335.01C109.6 335.01 114.482 333.18 114.482 330.921C114.482 328.663 109.6 326.833 103.579 326.833C97.557 326.833 92.6755 328.663 92.6755 330.921C92.6755 333.18 97.557 335.01 103.579 335.01Z" fill="#ACA386"/>
<path d="M129.746 334.465C135.768 334.465 140.649 332.634 140.649 330.376C140.649 328.118 135.768 326.288 129.746 326.288C123.725 326.288 118.843 328.118 118.843 330.376C118.843 332.634 123.725 334.465 129.746 334.465Z" fill="#ACA386"/>
<path d="M113.391 277.224C121.521 277.224 128.111 270.634 128.111 262.504C128.111 254.375 121.521 247.785 113.391 247.785C105.262 247.785 98.6722 254.375 98.6722 262.504C98.6722 270.634 105.262 277.224 113.391 277.224Z" fill="white"/>
<path d="M113.391 267.411C116.101 267.411 118.298 265.214 118.298 262.504C118.298 259.795 116.101 257.598 113.391 257.598C110.682 257.598 108.485 259.795 108.485 262.504C108.485 265.214 110.682 267.411 113.391 267.411Z" fill="#3F3D56"/>
<path d="M83.2493 262.652C84.8492 259.278 77.4353 252.412 66.6899 247.316C55.9445 242.22 45.9366 240.823 44.3367 244.196C42.7368 247.569 50.1507 254.435 60.8961 259.532C71.6415 264.628 81.6494 266.025 83.2493 262.652Z" fill="#ACA386"/>
<path d="M91.1466 288.944C91.1466 293.16 102 301.483 114.043 301.483C126.087 301.483 137.378 289.616 137.378 285.401C137.378 281.186 126.086 286.219 114.043 286.219C102 286.219 91.1466 284.729 91.1466 288.944Z" fill="white"/>
<path d="M437.431 309.621C461.216 309.621 480.498 290.339 480.498 266.554C480.498 242.768 461.216 223.486 437.431 223.486C413.645 223.486 394.363 242.768 394.363 266.554C394.363 290.339 413.645 309.621 437.431 309.621Z" fill="#2F2E41"/>
<path d="M430.889 300.354H417.805V323.795H430.889V300.354Z" fill="#2F2E41"/>
<path d="M457.056 300.354H443.972V323.795H457.056V300.354Z" fill="#2F2E41"/>
<path d="M437.642 331.561C438.573 329.503 434.88 325.824 429.393 323.342C423.906 320.861 418.704 320.517 417.774 322.575C416.843 324.632 420.537 328.312 426.023 330.793C431.51 333.275 436.712 333.618 437.642 331.561Z" fill="#2F2E41"/>
<path d="M462.684 330.285C463.67 328.253 460.078 324.475 454.661 321.844C449.244 319.214 444.054 318.729 443.067 320.76C442.081 322.792 445.673 326.571 451.09 329.201C456.507 331.831 461.698 332.316 462.684 330.285Z" fill="#2F2E41"/>
<path d="M395.654 226.502C392.176 210.929 403.292 195.192 420.482 191.354C437.672 187.515 454.427 197.029 457.904 212.602C461.382 228.176 449.989 233.92 432.799 237.758C415.609 241.597 399.131 242.076 395.654 226.502Z" fill="#CCC6B4"/>
<path d="M483.84 247.734C493.167 238.4 498.352 228.46 495.422 225.532C492.492 222.604 482.555 227.797 473.228 237.131C463.901 246.465 458.716 256.406 461.646 259.334C464.577 262.262 474.513 257.068 483.84 247.734Z" fill="#2F2E41"/>
<path d="M402.079 284.357C405.463 271.603 404.962 260.402 400.958 259.34C396.954 258.277 390.964 267.755 387.579 280.509C384.195 293.262 384.696 304.463 388.7 305.526C392.704 306.588 398.694 297.11 402.079 284.357Z" fill="#2F2E41"/>
<path d="M153.752 273.148C153.752 284.181 149.371 294.761 141.571 302.563C133.771 310.365 123.192 314.75 112.159 314.752C101.127 314.755 90.5455 310.376 82.7414 302.579C74.9374 294.781 70.55 284.203 70.5441 273.171C70.5382 262.138 74.9143 251.556 82.71 243.749C90.5057 235.943 101.083 231.553 112.115 231.544C123.147 231.535 133.731 235.909 141.539 243.702C149.347 251.496 153.741 262.072 153.752 273.104" fill="#ACA386"/>
<path d="M153.752 273.148C153.752 284.181 149.371 294.761 141.571 302.563C133.771 310.365 123.192 314.75 112.159 314.752C101.127 314.755 90.5455 310.376 82.7414 302.579C74.9374 294.781 70.55 284.203 70.5441 273.171C70.5382 262.138 74.9143 251.556 82.71 243.749C90.5057 235.943 101.083 231.553 112.115 231.544C123.147 231.535 133.731 235.909 141.539 243.702C149.347 251.496 153.741 262.072 153.752 273.104" stroke="#ACA386" stroke-width="0.566929" stroke-linecap="round" stroke-linejoin="round"/>
<path d="M109.771 262.954C109.771 268.061 107.716 272.958 104.058 276.57C100.399 280.181 95.4374 282.211 90.2632 282.212C85.0889 282.213 80.1259 280.186 76.4657 276.577C72.8054 272.967 70.7476 268.071 70.7449 262.964C70.7421 257.858 72.7946 252.959 76.4509 249.346C80.1072 245.732 85.068 243.7 90.2423 243.696C95.4166 243.692 100.381 245.716 104.043 249.324C107.705 252.931 109.765 257.827 109.771 262.933" fill="#F5F3F0"/>
<path d="M109.771 262.954C109.771 268.061 107.716 272.958 104.058 276.57C100.399 280.181 95.4374 282.211 90.2632 282.212C85.0889 282.213 80.1259 280.186 76.4657 276.577C72.8054 272.967 70.7476 268.071 70.7449 262.964C70.7421 257.858 72.7946 252.959 76.4509 249.346C80.1072 245.732 85.068 243.7 90.2423 243.696C95.4166 243.692 100.381 245.716 104.043 249.324C107.705 252.931 109.765 257.827 109.771 262.933" stroke="#6A6248" stroke-width="0.40063" stroke-linecap="round" stroke-linejoin="round"/>
<path d="M152.192 262.826C152.192 267.936 150.136 272.836 146.475 276.45C142.814 280.064 137.849 282.095 132.672 282.096C127.494 282.097 122.528 280.069 118.866 276.457C115.203 272.846 113.144 267.946 113.141 262.836C113.139 257.726 115.192 252.825 118.851 249.209C122.51 245.593 127.474 243.56 132.651 243.556C137.829 243.552 142.796 245.577 146.46 249.187C150.125 252.797 152.186 257.695 152.192 262.805" fill="#F5F3F0"/>
<path d="M152.192 262.826C152.192 267.936 150.136 272.836 146.475 276.45C142.814 280.064 137.849 282.095 132.672 282.096C127.494 282.097 122.528 280.069 118.866 276.457C115.203 272.846 113.144 267.946 113.141 262.836C113.139 257.726 115.192 252.825 118.851 249.209C122.51 245.593 127.474 243.56 132.651 243.556C137.829 243.552 142.796 245.577 146.46 249.187C150.125 252.797 152.186 257.695 152.192 262.805" stroke="#6A6248" stroke-width="0.40063" stroke-linecap="round" stroke-linejoin="round"/>
<path d="M121.636 281.087C121.339 281.096 121.048 281.004 120.811 280.826C120.573 280.648 120.403 280.394 120.329 280.107C120.313 279.397 120.087 278.708 119.68 278.127C119.273 277.545 118.703 277.097 118.042 276.839C116.25 275.707 114.198 275.053 112.082 274.939C109.965 274.824 107.855 275.254 105.951 276.186C105.079 276.44 104.302 276.95 103.72 277.648C103.138 278.346 102.777 279.202 102.684 280.107C102.684 281.087 102.357 281.087 101.703 281.414C99.5374 282.033 97.6757 283.429 96.4751 285.335C95.6581 286.265 95.1551 287.428 95.0378 288.66C94.9205 289.892 95.1947 291.13 95.8216 292.197C96.3035 293.223 97.1059 294.065 98.1078 294.596C99.1098 295.126 100.257 295.316 101.377 295.138H103.011C103.011 297.099 102.684 299.386 102.684 301.347C102.684 303.307 104.318 307.229 107.258 306.902C108.92 306.732 110.561 306.404 112.16 305.921C112.487 305.595 112.487 305.595 112.487 305.921C113.495 306.57 114.645 306.968 115.839 307.081C117.032 307.195 118.236 307.021 119.349 306.575C120.223 305.966 120.903 305.118 121.308 304.133C121.714 303.148 121.828 302.068 121.636 301.02C121.636 298.733 121.31 296.772 121.31 294.485H122.617C123.428 294.51 124.235 294.347 124.973 294.007C125.71 293.667 126.359 293.159 126.866 292.525C127.373 291.891 127.726 291.147 127.896 290.353C128.066 289.558 128.048 288.736 127.845 287.949C127.547 286.343 126.809 284.85 125.712 283.639C124.616 282.427 123.205 281.544 121.636 281.087ZM110.853 303.307C110.853 304.288 109.873 305.268 108.239 305.268C106.605 305.268 104.971 304.614 104.971 303.307C104.808 300.587 104.808 297.859 104.971 295.138H105.298L111.18 292.524C111.18 296.445 111.18 299.713 110.853 303.307ZM118.042 304.941C116.835 305.14 115.598 305.027 114.447 304.614C114.121 304.614 113.467 303.634 113.467 303.307V292.851L118.695 294.811C118.781 294.811 118.866 294.828 118.945 294.861C119.025 294.894 119.097 294.942 119.158 295.003C119.218 295.063 119.266 295.135 119.299 295.215C119.332 295.294 119.349 295.379 119.349 295.465C119.513 297.749 119.513 300.043 119.349 302.327C119.349 302.834 119.231 303.335 119.004 303.788C118.777 304.242 118.448 304.637 118.042 304.941ZM125.558 290.89C124.577 292.524 122.943 292.524 120.656 292.851L116.081 291.544C114.699 290.901 113.194 290.568 111.67 290.568C110.146 290.568 108.64 290.901 107.258 291.544L101.377 292.851C100.682 293.073 99.9288 293.029 99.2645 292.727C98.6002 292.425 98.0719 291.887 97.7822 291.217C97.3649 290.453 97.174 289.587 97.2319 288.719C97.2898 287.85 97.594 287.017 98.109 286.315L100.07 284.355C100.701 283.827 101.483 283.511 102.304 283.453C103.125 283.394 103.944 283.595 104.644 284.028C106.862 285.453 109.467 286.156 112.101 286.039C114.734 285.922 117.266 284.991 119.349 283.374H120.983C122.279 283.83 123.493 284.492 124.577 285.335C125.222 286.089 125.653 287.002 125.825 287.979C125.997 288.956 125.905 289.961 125.558 290.89Z" fill="#1E1C15"/>
<path d="M133.278 257.277C132.471 257.276 131.673 257.439 130.931 257.756C130.189 258.074 129.519 258.539 128.963 259.123C128.406 259.708 127.974 260.399 127.694 261.155C127.413 261.912 127.289 262.718 127.329 263.524C127.328 264.292 127.483 265.052 127.786 265.757C128.088 266.463 128.531 267.1 129.088 267.629C129.645 268.158 130.304 268.568 131.024 268.834C131.744 269.1 132.511 269.216 133.278 269.175C134.856 269.175 136.369 268.549 137.485 267.433C138.601 266.317 139.228 264.804 139.228 263.226C139.228 261.648 138.601 260.135 137.485 259.019C136.369 257.904 134.856 257.277 133.278 257.277ZM135.956 266.498C135.721 266.498 135.489 266.452 135.272 266.362C135.056 266.273 134.859 266.141 134.693 265.975C134.528 265.81 134.396 265.613 134.307 265.396C134.217 265.18 134.171 264.948 134.171 264.713C134.114 264.467 134.12 264.211 134.19 263.968C134.259 263.725 134.389 263.504 134.568 263.326C134.746 263.147 134.968 263.017 135.21 262.948C135.453 262.878 135.71 262.872 135.956 262.929C136.382 262.923 136.796 263.069 137.123 263.342C137.45 263.615 137.669 263.996 137.74 264.416C137.745 264.92 137.567 265.409 137.239 265.792C136.911 266.175 136.455 266.426 135.956 266.498Z" fill="#1E1C15"/>
<path d="M95.186 263.879C95.2289 263.087 95.1044 262.294 94.8206 261.553C94.5369 260.811 94.1001 260.138 93.5389 259.577C92.9776 259.016 92.3045 258.579 91.5632 258.295C90.822 258.011 90.0293 257.887 89.2367 257.93C88.4554 257.93 87.6818 258.084 86.96 258.383C86.2382 258.682 85.5824 259.12 85.0299 259.672C84.4775 260.225 84.0393 260.881 83.7403 261.602C83.4413 262.324 83.2874 263.098 83.2874 263.879C83.2864 264.686 83.4496 265.485 83.767 266.227C84.0844 266.969 84.5494 267.638 85.1338 268.195C85.7181 268.751 86.4096 269.183 87.166 269.464C87.9225 269.745 88.7282 269.869 89.5342 269.828C90.3021 269.829 91.0622 269.674 91.768 269.372C92.4739 269.069 93.1107 268.626 93.6396 268.069C94.1685 267.513 94.5784 266.854 94.8442 266.133C95.1101 265.413 95.2264 264.646 95.186 263.879ZM92.2113 263.582C92.6315 263.653 93.0124 263.872 93.2852 264.199C93.5579 264.526 93.7046 264.94 93.6987 265.366C93.6987 266.259 92.5088 267.151 91.6164 267.151C91.3806 267.115 91.1544 267.032 90.9511 266.908C90.7478 266.783 90.5717 266.618 90.433 266.424C90.2944 266.23 90.196 266.01 90.1438 265.777C90.0916 265.545 90.0866 265.304 90.1291 265.069C90.4266 263.879 91.0215 263.582 92.2113 263.582Z" fill="#1E1C15"/>
<path d="M106.882 305.052C105.905 304.789 105.25 304.286 105.073 303.663C104.949 303.228 104.86 298.551 104.939 296.674C105.003 295.168 105.006 295.151 105.198 295.151C105.305 295.151 106.681 294.579 108.256 293.879L111.119 292.606L111.145 293.815C111.203 296.451 110.925 303.031 110.726 303.759C110.598 304.224 110.012 304.781 109.413 305.005C108.826 305.225 107.608 305.248 106.882 305.052Z" fill="#F5F3F0" stroke="#6A6248" stroke-width="0.0180957" stroke-linecap="round" stroke-linejoin="round"/>
<path d="M116.18 304.965C116.038 304.946 115.568 304.848 115.135 304.747C114.273 304.548 114.013 304.362 113.658 303.688C113.481 303.351 113.478 303.263 113.478 298.124C113.478 293.982 113.5 292.911 113.585 292.943C113.644 292.965 114.913 293.439 116.404 293.996C118.332 294.715 119.149 295.059 119.231 295.187C119.383 295.424 119.451 300.48 119.323 302.052C119.245 303.004 119.196 303.236 118.976 303.681C118.835 303.967 118.554 304.363 118.351 304.562C117.982 304.922 117.981 304.922 117.209 304.962C116.785 304.983 116.321 304.985 116.18 304.965Z" fill="#F5F3F0" stroke="#6A6248" stroke-width="0.0180957" stroke-linecap="round" stroke-linejoin="round"/>
</g>
<defs>
<clipPath id="clip0_2109_357">
<rect width="826.063" height="335.01" fill="white"/>
</clipPath>
</defs>
</svg>
