<svg width="867" height="586" viewBox="0 0 867 586" fill="none" xmlns="http://www.w3.org/2000/svg">
<g clip-path="url(#clip0_2107_2)">
<path d="M425.833 394.634C424.746 395.251 423.677 395.882 422.61 396.534C410.524 423.73 403.084 452.76 400.6 482.417C400.303 485.846 400.085 489.273 399.946 492.698C398.826 518.379 401.544 544.083 408.01 568.961C408.351 570.271 408.701 571.576 409.06 572.876C409.317 573.809 409.579 574.75 409.867 575.677C410.193 576.16 410.515 576.633 410.836 577.106C410.86 577.128 410.879 577.163 410.903 577.184C411.032 577.375 411.162 577.566 411.277 577.753C411.833 578.565 412.398 579.373 412.954 580.184L412.458 580.198L411.215 580.228L411.22 580.236C411.636 580.244 412.062 580.247 412.482 580.242C412.635 580.248 412.801 580.259 412.957 580.251C413.096 580.254 413.244 580.252 413.383 580.255C431.282 580.484 449.616 580.322 466.178 573.66C483.514 566.68 498.621 550.695 498.631 532.014C498.625 529.567 498.352 527.127 497.815 524.74C497.59 523.743 497.318 522.761 497.023 521.781C495.228 515.778 491.867 510.361 487.285 506.087C482.703 501.813 477.066 498.837 470.953 497.464C464.84 496.091 458.471 496.371 452.502 498.276C446.532 500.18 441.178 503.639 436.989 508.299C442.635 489.313 463.978 480.361 483.087 475.164C502.21 469.97 523.706 464.597 534.044 447.7C539.814 438.298 540.391 427.098 537.289 416.611C537.194 416.297 537.095 415.975 536.986 415.657C533.045 403.306 524.589 392.897 513.307 386.51C492.152 374.964 465.777 377.687 443.284 386.342C437.265 388.661 431.432 391.433 425.833 394.634Z" fill="#F2F2F2"/>
<path d="M482.733 521.29C465.707 522.172 449.418 528.509 436.272 539.364C425.071 548.717 416.595 560.913 411.733 574.671C411.451 575.458 411.191 576.244 410.945 577.035C410.549 576.202 410.166 575.351 409.787 574.508C409.544 573.968 409.295 573.42 409.06 572.876C409.317 573.809 409.579 574.75 409.867 575.677C410.193 576.16 410.515 576.633 410.836 577.106C410.859 577.128 410.879 577.163 410.902 577.184C411.032 577.375 411.161 577.566 411.277 577.753C411.833 578.565 412.398 579.373 412.954 580.184L412.458 580.198L411.215 580.228L411.219 580.236C411.636 580.244 412.062 580.247 412.482 580.242C412.635 580.248 412.801 580.259 412.957 580.251C413.018 580.012 413.092 579.776 413.167 579.539C418.28 561.723 429.668 546.359 445.227 536.286C460.787 526.213 479.466 522.112 497.814 524.74C497.59 523.743 497.317 522.761 497.022 521.781C492.283 521.202 487.501 521.037 482.733 521.29Z" fill="white"/>
<path d="M429.203 448.094C422.194 452.922 415.927 458.748 410.601 465.387C407.823 468.929 405.381 472.722 403.306 476.717C402.324 478.569 401.421 480.482 400.6 482.417C400.303 485.846 400.085 489.273 399.946 492.698C400.68 490.134 401.551 487.611 402.554 485.14C403.079 483.782 403.655 482.453 404.263 481.141C411.079 466.449 422.819 455.103 436.467 446.665C451.092 437.636 467.435 431.073 483.92 426.366C500.816 421.516 518.242 418.755 535.809 418.146C536.206 418.13 536.581 417.961 536.857 417.675C537.133 417.389 537.287 417.008 537.289 416.611C537.316 416.266 537.207 415.924 536.986 415.657C536.868 415.532 536.722 415.436 536.56 415.377C536.398 415.319 536.224 415.299 536.053 415.319C533.885 415.395 531.722 415.479 529.558 415.622C511.547 416.754 493.747 420.121 476.568 425.646C459.985 430.958 443.5 438.047 429.203 448.094Z" fill="white"/>
<path d="M521.614 369.017C524.928 369.017 527.614 366.331 527.614 363.017C527.614 359.703 524.928 357.017 521.614 357.017C518.301 357.017 515.614 359.703 515.614 363.017C515.614 366.331 518.301 369.017 521.614 369.017Z" fill="#F2F2F2"/>
<path d="M391.855 585.957H32.1567C23.6312 585.947 15.4576 582.556 9.42911 576.527C3.40064 570.499 0.00962626 562.325 0 553.8V32.1567C0.00962626 23.6312 3.40064 15.4576 9.42911 9.42911C15.4576 3.40064 23.6312 0.00962626 32.1567 0H391.855C400.38 0.00962626 408.554 3.40064 414.582 9.42911C420.611 15.4576 424.002 23.6312 424.012 32.1567V553.8C424.002 562.325 420.611 570.499 414.582 576.527C408.554 582.556 400.38 585.947 391.855 585.957Z" fill="#3F3D56"/>
<path d="M392.488 565.44H31.5236C28.8955 565.437 26.376 564.392 24.5176 562.533C22.6593 560.675 21.614 558.155 21.611 555.527V30.4293C21.614 27.8012 22.6593 25.2816 24.5176 23.4233C26.376 21.5649 28.8955 20.5196 31.5236 20.5166H392.488C395.116 20.5196 397.636 21.5649 399.494 23.4233C401.352 25.2816 402.398 27.8012 402.401 30.4293V555.527C402.398 558.155 401.352 560.675 399.494 562.533C397.636 564.392 395.116 565.437 392.488 565.44Z" fill="white"/>
<path d="M210.638 12.5837C212.149 12.5837 213.374 11.3589 213.374 9.84811C213.374 8.3373 212.149 7.11255 210.638 7.11255C209.127 7.11255 207.902 8.3373 207.902 9.84811C207.902 11.3589 209.127 12.5837 210.638 12.5837Z" fill="white"/>
<path d="M374.871 408.259H49.1401C47.8644 408.257 46.6413 407.75 45.7392 406.848C44.8371 405.946 44.3296 404.723 44.3282 403.447V112.51C44.3296 111.234 44.8371 110.011 45.7392 109.109C46.6413 108.207 47.8644 107.699 49.1401 107.698H374.871C376.147 107.699 377.37 108.207 378.272 109.109C379.174 110.011 379.682 111.234 379.683 112.51V403.447C379.682 404.723 379.174 405.946 378.272 406.848C377.37 407.75 376.147 408.257 374.871 408.259Z" fill="#F0F0F0"/>
<path d="M348.221 315.722H76.5312C75.2554 315.72 74.0323 315.213 73.1302 314.311C72.2281 313.409 71.7207 312.185 71.7192 310.91V143.602C71.7207 142.326 72.2281 141.103 73.1302 140.201C74.0323 139.299 75.2554 138.792 76.5312 138.79H348.221C349.496 138.792 350.72 139.299 351.622 140.201C352.524 141.103 353.031 142.326 353.033 143.602V310.91C353.031 312.185 352.524 313.408 351.622 314.311C350.72 315.213 349.496 315.72 348.221 315.722Z" fill="white"/>
<path d="M285.665 382.348H81.3431C78.7907 382.348 76.3428 381.334 74.538 379.53C72.7332 377.725 71.7192 375.277 71.7192 372.724C71.7192 370.172 72.7332 367.724 74.538 365.919C76.3428 364.115 78.7907 363.101 81.3431 363.101H285.665C288.218 363.101 290.666 364.115 292.471 365.919C294.275 367.724 295.289 370.172 295.289 372.724C295.289 375.277 294.275 377.725 292.471 379.53C290.666 381.334 288.218 382.348 285.665 382.348Z" fill="white"/>
<path d="M219.779 349.405H81.3431C78.7907 349.405 76.3428 348.391 74.538 346.586C72.7332 344.782 71.7192 342.334 71.7192 339.781C71.7192 337.229 72.7332 334.781 74.538 332.976C76.3428 331.171 78.7907 330.157 81.3431 330.157H219.779C222.331 330.157 224.779 331.171 226.584 332.976C228.389 334.781 229.403 337.229 229.403 339.781C229.403 342.334 228.389 344.782 226.584 346.586C224.779 348.391 222.331 349.405 219.779 349.405Z" fill="white"/>
<path d="M233.949 316.403C234.282 316.299 234.608 316.195 234.941 316.092C248.23 311.815 259.755 303.31 267.76 291.873C275.765 280.436 279.81 266.694 279.277 252.744C279.028 246.047 277.713 239.433 275.383 233.149C271.651 223.021 265.414 214.004 257.254 206.939C249.095 199.874 239.278 194.991 228.72 192.747C218.163 190.502 207.209 190.968 196.881 194.103C186.552 197.237 177.186 202.937 169.657 210.67C162.127 218.403 156.679 227.918 153.822 238.326C150.965 248.735 150.791 259.697 153.316 270.191C155.842 280.685 160.985 290.368 168.265 298.336C175.546 306.304 184.726 312.298 194.95 315.759C195.283 315.877 195.623 315.988 195.957 316.092H214.279L233.949 316.403Z" fill="#ACA386"/>
<path d="M196.956 302.848L194.949 315.759L194.898 316.092H175.258L176.805 306.142L177.856 299.391L196.956 302.848Z" fill="#ACA386"/>
<path d="M233.948 316.403L234 316.092L235.148 309.762L216.048 306.305L214.279 316.092L233.948 316.403Z" fill="#ACA386"/>
<path d="M219.905 261.452C231.963 261.452 241.738 251.677 241.738 239.619C241.738 227.561 231.963 217.786 219.905 217.786C207.847 217.786 198.072 227.561 198.072 239.619C198.072 251.677 207.847 261.452 219.905 261.452Z" fill="white"/>
<path d="M228.878 239.071C232.898 239.071 236.156 235.812 236.156 231.793C236.156 227.774 232.898 224.515 228.878 224.515C224.859 224.515 221.601 227.774 221.601 231.793C221.601 235.812 224.859 239.071 228.878 239.071Z" fill="#3F3D56"/>
<path d="M276.659 253.381C293.854 249.439 306.79 241.868 305.552 236.47C304.315 231.072 289.373 229.892 272.179 233.833C254.984 237.774 242.048 245.345 243.285 250.743C244.523 256.141 259.465 257.322 276.659 253.381Z" fill="#ACA386"/>
<path d="M151.261 274.234C168.456 270.293 181.392 262.722 180.154 257.324C178.917 251.926 163.975 250.745 146.781 254.686C129.586 258.628 116.65 266.199 117.887 271.597C119.125 276.994 134.067 278.175 151.261 274.234Z" fill="#ACA386"/>
<path d="M197.887 280.42C197.196 284.218 198.043 288.135 200.239 291.309C202.436 294.483 205.804 296.655 209.602 297.346C213.4 298.037 217.317 297.191 220.491 294.994C223.666 292.797 225.837 289.429 226.528 285.631L226.533 285.606C227.965 277.696 221.849 274.897 213.939 273.465C206.028 272.033 199.319 272.51 197.887 280.42Z" fill="white"/>
<path d="M342.107 364.58C341.525 363.995 340.834 363.53 340.073 363.212C339.312 362.894 338.496 362.729 337.671 362.727C336.846 362.724 336.029 362.884 335.266 363.198C334.503 363.512 333.809 363.973 333.224 364.555C332.64 365.136 332.175 365.828 331.858 366.589C331.541 367.351 331.377 368.167 331.375 368.992C331.373 369.817 331.534 370.634 331.848 371.397C332.163 372.159 332.624 372.853 333.207 373.437L333.228 373.458L342.107 382.337L350.985 373.458C352.157 372.28 352.814 370.685 352.811 369.023C352.809 367.361 352.148 365.768 350.973 364.592C349.797 363.417 348.204 362.756 346.542 362.754C344.88 362.751 343.285 363.408 342.107 364.58Z" fill="#CCC6B4"/>
<path d="M532.107 145.84C530.932 144.66 529.337 143.995 527.672 143.99C526.007 143.986 524.409 144.644 523.228 145.818C522.048 146.993 521.383 148.588 521.379 150.253C521.375 151.918 522.032 153.517 523.207 154.697L523.228 154.718L532.107 163.597L540.985 154.718C542.157 153.54 542.814 151.945 542.811 150.283C542.809 148.621 542.148 147.028 540.973 145.852C539.797 144.677 538.204 144.016 536.542 144.014C534.88 144.011 533.285 144.668 532.107 145.84Z" fill="#CCC6B4"/>
<path d="M544.111 106.191C543.39 105.28 542.473 104.543 541.428 104.036C540.383 103.529 539.238 103.263 538.076 103.26C536.915 103.257 535.767 103.516 534.72 104.017C533.672 104.518 532.751 105.25 532.025 106.157C530.402 108.14 529.513 110.623 529.508 113.185C529.502 115.748 530.381 118.235 531.996 120.225L532.025 120.259L544.111 134.327L556.196 120.259C557.811 118.269 558.689 115.782 558.683 113.219C558.678 110.656 557.788 108.174 556.165 106.191C555.441 105.287 554.524 104.558 553.481 104.057C552.438 103.556 551.295 103.295 550.138 103.295C548.98 103.295 547.838 103.556 546.794 104.057C545.751 104.558 544.834 105.287 544.111 106.191Z" fill="#CCC6B4"/>
<path d="M718.684 575.1H707.485L702.156 531.9L718.686 531.901L718.684 575.1Z" fill="#9E616A"/>
<path d="M721.541 585.957L685.428 585.955V585.498C685.428 581.771 686.909 578.195 689.545 575.56C692.181 572.924 695.756 571.443 699.484 571.442L721.541 571.443L721.541 585.957Z" fill="#2F2E41"/>
<path d="M615.454 575.1H604.254L598.926 531.9L615.456 531.901L615.454 575.1Z" fill="#9E616A"/>
<path d="M618.31 585.957L582.197 585.955V585.498C582.197 581.771 583.678 578.195 586.314 575.56C588.95 572.924 592.526 571.443 596.253 571.442L618.311 571.443L618.31 585.957Z" fill="#2F2E41"/>
<path d="M628.977 228.045L621.668 274.636L691.098 275.55L681.962 230.786L628.977 228.045Z" fill="#9E616A"/>
<path d="M623.683 263.26L601.57 322.141L598.83 566.15H617.557L662.321 370.102L703.43 561.032H721.701L708.912 346.35C708.912 346.35 712.683 303.26 693.382 277.834L688.683 264.26L623.683 263.26Z" fill="#2F2E41"/>
<path d="M718.535 309.16C716.602 308.634 714.808 307.689 713.279 306.394C711.751 305.099 710.524 303.484 709.687 301.664C708.85 299.844 708.422 297.862 708.434 295.858C708.445 293.855 708.896 291.878 709.754 290.067L680.218 193.772L701.943 189.465L728.957 283.855C731.903 285.498 734.144 288.165 735.255 291.35C736.366 294.535 736.27 298.017 734.986 301.137C733.701 304.256 731.317 306.796 728.285 308.274C725.253 309.753 721.784 310.069 718.535 309.16Z" fill="#9E616A"/>
<path d="M679.447 253.776L631.588 252.852C630.22 252.823 628.899 252.346 627.828 251.495C626.757 250.643 625.994 249.464 625.657 248.138C623.092 237.98 617.447 211.507 620.441 185.139C621.032 180.031 622.641 175.093 625.174 170.618C627.707 166.143 631.111 162.222 635.186 159.085C639.261 155.949 643.923 153.662 648.898 152.359C653.872 151.057 659.057 150.765 664.146 151.502C669.515 152.27 674.66 154.165 679.244 157.062C683.829 159.959 687.749 163.793 690.748 168.311C693.747 172.83 695.756 177.932 696.644 183.281C697.533 188.631 697.28 194.108 695.903 199.354C689.878 222.232 686.475 238.599 685.789 248.002C685.687 249.361 685.143 250.65 684.24 251.671C683.337 252.693 682.124 253.39 680.788 253.658C680.39 253.737 679.986 253.777 679.58 253.777C679.536 253.777 679.492 253.777 679.447 253.776Z" fill="#E4E4E4"/>
<path d="M545.87 169.191C546.157 169.836 546.394 170.502 546.576 171.184L606.483 191.541L618.058 181.429L635.603 196.904L616.851 216.797C615.336 218.404 613.34 219.477 611.164 219.853C608.988 220.23 606.748 219.89 604.781 218.886L540.678 186.142C538.359 187.564 535.663 188.246 532.948 188.098C530.232 187.951 527.626 186.98 525.476 185.315C523.326 183.65 521.733 181.369 520.911 178.777C520.088 176.185 520.074 173.404 520.87 170.804C521.667 168.203 523.236 165.907 525.37 164.221C527.503 162.534 530.099 161.537 532.813 161.362C535.527 161.187 538.23 161.842 540.562 163.241C542.895 164.639 544.746 166.715 545.87 169.191Z" fill="#9E616A"/>
<path d="M606.607 188.295C606.612 187.47 606.794 186.655 607.142 185.907C607.49 185.159 607.996 184.495 608.624 183.96L630.559 165.276C633.335 162.096 637.259 160.147 641.47 159.856C645.681 159.565 649.835 160.956 653.022 163.723C656.21 166.491 658.169 170.409 658.472 174.619C658.775 178.829 657.396 182.987 654.637 186.182L639.017 210.506C638.571 211.201 637.981 211.79 637.286 212.236C636.592 212.681 635.81 212.972 634.993 213.088C634.176 213.204 633.344 213.142 632.553 212.908C631.762 212.673 631.031 212.271 630.41 211.728L608.571 192.654C607.949 192.111 607.452 191.441 607.113 190.689C606.774 189.936 606.601 189.12 606.607 188.295Z" fill="#E4E4E4"/>
<path d="M678.894 218.164C678.164 217.78 677.525 217.243 677.022 216.589C676.518 215.936 676.161 215.182 675.976 214.378L669.49 186.303C667.946 182.374 668.022 177.993 669.702 174.121C671.383 170.248 674.531 167.201 678.455 165.645C682.38 164.09 686.761 164.155 690.637 165.825C694.514 167.496 697.571 170.635 699.136 174.556L713.535 199.622C713.946 200.338 714.198 201.133 714.273 201.955C714.349 202.776 714.247 203.605 713.974 204.383C713.7 205.161 713.263 205.872 712.69 206.466C712.118 207.06 711.424 207.523 710.656 207.825L683.668 218.427C682.9 218.73 682.076 218.862 681.252 218.817C680.429 218.771 679.624 218.549 678.894 218.164Z" fill="#E4E4E4"/>
<path d="M677.744 141.601C691.97 133.825 697.198 115.988 689.421 101.762C681.645 87.5358 663.808 82.3076 649.582 90.0842C635.356 97.8608 630.128 115.698 637.904 129.924C645.681 144.15 663.518 149.378 677.744 141.601Z" fill="#9E616A"/>
<path d="M628.07 99.26H674.683V78.9412C664.452 74.8766 654.44 71.4198 648.388 78.9412C643 78.9412 637.831 81.082 634.021 84.8925C630.21 88.703 628.07 93.8712 628.07 99.26Z" fill="#2F2E41"/>
<path d="M677.264 75.3557C705.131 75.3557 712.93 110.285 712.93 129.991C712.93 140.981 707.96 144.911 700.151 146.241L697.393 131.531L690.933 146.874C688.739 146.885 686.434 146.843 684.045 146.798L681.855 142.288L676.97 146.717C657.409 146.746 641.598 149.598 641.598 129.991C641.598 110.285 648.439 75.3557 677.264 75.3557Z" fill="#2F2E41"/>
<path d="M865.64 586H317.64C317.375 586 317.12 585.895 316.933 585.707C316.745 585.52 316.64 585.265 316.64 585C316.64 584.735 316.745 584.48 316.933 584.293C317.12 584.105 317.375 584 317.64 584H865.64C865.905 584 866.16 584.105 866.347 584.293C866.535 584.48 866.64 584.735 866.64 585C866.64 585.265 866.535 585.52 866.347 585.707C866.16 585.895 865.905 586 865.64 586Z" fill="#3F3D56"/>
<path d="M276.201 253.214C276.201 269.121 269.883 284.376 258.637 295.625C247.39 306.875 232.137 313.197 216.23 313.201C200.323 313.205 185.066 306.891 173.813 295.648C162.561 284.405 156.235 269.153 156.226 253.246C156.218 237.339 162.528 222.08 173.768 210.825C185.008 199.569 200.259 193.239 216.166 193.226C232.072 193.214 247.333 199.519 258.591 210.756C269.85 221.994 276.184 237.243 276.201 253.149" fill="#ACA386"/>
<path d="M276.201 253.214C276.201 269.121 269.883 284.376 258.637 295.625C247.39 306.875 232.137 313.197 216.23 313.201C200.323 313.205 185.066 306.891 173.813 295.648C162.561 284.405 156.235 269.153 156.226 253.246C156.218 237.339 162.528 222.08 173.768 210.825C185.008 199.569 200.259 193.239 216.166 193.226C232.072 193.214 247.333 199.519 258.591 210.756C269.85 221.994 276.184 237.243 276.201 253.149" stroke="#ACA386" stroke-width="0.566929" stroke-linecap="round" stroke-linejoin="round"/>
<path d="M212.786 238.515C212.786 245.878 209.823 252.94 204.548 258.147C199.273 263.354 192.119 266.28 184.659 266.282C177.198 266.284 170.042 263.362 164.764 258.157C159.487 252.953 156.52 245.893 156.516 238.53C156.512 231.167 159.471 224.104 164.743 218.894C170.015 213.684 177.168 210.753 184.628 210.748C192.089 210.742 199.247 213.66 204.527 218.862C209.807 224.064 212.778 231.122 212.786 238.485" fill="#F5F3F0"/>
<path d="M212.786 238.515C212.786 245.878 209.823 252.94 204.548 258.147C199.273 263.354 192.119 266.28 184.659 266.282C177.198 266.284 170.042 263.362 164.764 258.157C159.487 252.953 156.52 245.893 156.516 238.53C156.512 231.167 159.471 224.104 164.743 218.894C170.015 213.684 177.168 210.753 184.628 210.748C192.089 210.742 199.247 213.66 204.527 218.862C209.807 224.064 212.778 231.122 212.786 238.485" stroke="#ACA386" stroke-width="0.40063" stroke-linecap="round" stroke-linejoin="round"/>
<path d="M273.951 238.33C273.951 245.698 270.986 252.764 265.708 257.974C260.43 263.185 253.271 266.113 245.806 266.115C238.341 266.117 231.18 263.192 225.9 257.985C220.619 252.777 217.65 245.713 217.646 238.345C217.642 230.977 220.603 223.91 225.878 218.697C231.153 213.483 238.311 210.551 245.776 210.545C253.241 210.54 260.403 213.46 265.687 218.665C270.971 223.87 273.943 230.933 273.951 238.3" fill="#F5F3F0"/>
<path d="M273.951 238.33C273.951 245.698 270.986 252.764 265.708 257.974C260.43 263.185 253.271 266.113 245.806 266.115C238.341 266.117 231.18 263.192 225.9 257.985C220.619 252.777 217.65 245.713 217.646 238.345C217.642 230.977 220.603 223.91 225.878 218.697C231.153 213.483 238.311 210.551 245.776 210.545C253.241 210.54 260.403 213.46 265.687 218.665C270.971 223.87 273.943 230.933 273.951 238.3" stroke="#ACA386" stroke-width="0.40063" stroke-linecap="round" stroke-linejoin="round"/>
<path d="M229.894 264.66C229.466 264.674 229.046 264.541 228.704 264.284C228.361 264.027 228.116 263.661 228.01 263.247C227.986 262.223 227.661 261.23 227.074 260.391C226.487 259.553 225.665 258.907 224.711 258.535C222.128 256.903 219.169 255.96 216.118 255.795C213.066 255.63 210.023 256.249 207.279 257.593C206.021 257.96 204.9 258.695 204.061 259.702C203.222 260.709 202.702 261.943 202.567 263.247C202.567 264.66 202.096 264.66 201.154 265.131C198.031 266.024 195.346 268.037 193.615 270.785C192.437 272.125 191.712 273.803 191.543 275.58C191.374 277.356 191.769 279.141 192.673 280.679C193.368 282.159 194.525 283.373 195.969 284.138C197.414 284.902 199.068 285.177 200.683 284.92H203.038C203.038 287.747 202.567 291.045 202.567 293.872C202.567 296.699 204.923 302.352 209.163 301.881C211.559 301.637 213.925 301.164 216.231 300.468C216.702 299.997 216.702 299.997 216.702 300.468C218.156 301.403 219.813 301.976 221.535 302.14C223.256 302.304 224.991 302.054 226.596 301.41C227.856 300.532 228.837 299.31 229.421 297.89C230.006 296.47 230.17 294.911 229.894 293.401C229.894 290.102 229.423 287.276 229.423 283.977H231.308C232.478 284.015 233.641 283.779 234.705 283.288C235.768 282.798 236.703 282.067 237.435 281.152C238.166 280.238 238.675 279.165 238.92 278.02C239.165 276.875 239.139 275.688 238.846 274.554C238.416 272.238 237.352 270.086 235.771 268.339C234.191 266.592 232.156 265.319 229.894 264.66ZM214.346 296.699C214.346 298.112 212.933 299.526 210.577 299.526C208.221 299.526 205.865 298.583 205.865 296.699C205.63 292.776 205.63 288.843 205.865 284.92H206.336L214.817 281.151C214.817 286.804 214.817 291.516 214.346 296.699ZM224.711 299.054C222.972 299.341 221.188 299.178 219.529 298.583C219.058 298.583 218.115 297.17 218.115 296.699V281.622L225.654 284.449C225.778 284.449 225.9 284.473 226.014 284.52C226.129 284.568 226.233 284.637 226.32 284.725C226.408 284.812 226.477 284.916 226.524 285.03C226.572 285.145 226.596 285.267 226.596 285.391C226.832 288.685 226.832 291.991 226.596 295.285C226.596 296.017 226.426 296.738 226.099 297.392C225.772 298.046 225.297 298.616 224.711 299.054ZM235.548 278.795C234.135 281.151 231.779 281.151 228.481 281.622L221.885 279.737C219.892 278.81 217.721 278.33 215.524 278.33C213.327 278.33 211.156 278.81 209.163 279.737L200.683 281.622C199.68 281.942 198.595 281.878 197.637 281.443C196.679 281.007 195.918 280.232 195.5 279.266C194.898 278.165 194.623 276.915 194.706 275.664C194.79 274.412 195.229 273.21 195.971 272.199L198.798 269.372C199.709 268.611 200.836 268.156 202.02 268.071C203.204 267.987 204.384 268.277 205.394 268.901C208.592 270.956 212.348 271.969 216.145 271.8C219.942 271.631 223.594 270.289 226.596 267.958H228.952C230.821 268.615 232.571 269.57 234.135 270.785C235.064 271.872 235.685 273.189 235.934 274.597C236.182 276.006 236.049 277.455 235.548 278.795Z" fill="#1E1C15"/>
<path d="M254.43 223.871C253.267 223.869 252.115 224.104 251.046 224.562C249.976 225.02 249.01 225.69 248.208 226.533C247.406 227.375 246.783 228.372 246.378 229.463C245.973 230.554 245.794 231.715 245.852 232.878C245.851 233.985 246.075 235.081 246.511 236.098C246.947 237.116 247.586 238.034 248.389 238.797C249.191 239.56 250.141 240.151 251.18 240.534C252.219 240.917 253.325 241.085 254.43 241.027C256.705 241.027 258.887 240.123 260.496 238.514C262.105 236.906 263.008 234.724 263.008 232.449C263.008 230.174 262.105 227.992 260.496 226.383C258.887 224.774 256.705 223.871 254.43 223.871ZM258.29 237.167C257.953 237.167 257.618 237.1 257.306 236.971C256.993 236.841 256.71 236.652 256.471 236.413C256.232 236.174 256.042 235.89 255.913 235.578C255.784 235.266 255.717 234.931 255.717 234.593C255.635 234.238 255.644 233.869 255.744 233.519C255.845 233.169 256.032 232.85 256.29 232.592C256.547 232.335 256.866 232.147 257.216 232.047C257.566 231.947 257.936 231.937 258.29 232.02C258.905 232.011 259.502 232.223 259.974 232.616C260.446 233.009 260.762 233.558 260.864 234.164C260.871 234.891 260.615 235.597 260.141 236.149C259.668 236.701 259.01 237.063 258.29 237.167Z" fill="#1E1C15"/>
<path d="M199.506 233.39C199.568 232.248 199.389 231.105 198.98 230.036C198.571 228.967 197.941 227.997 197.132 227.187C196.322 226.378 195.352 225.748 194.283 225.339C193.214 224.93 192.071 224.751 190.928 224.812C189.802 224.812 188.687 225.034 187.646 225.465C186.605 225.897 185.659 226.528 184.863 227.325C184.066 228.121 183.435 229.067 183.003 230.108C182.572 231.149 182.35 232.264 182.35 233.39C182.349 234.554 182.584 235.706 183.042 236.775C183.5 237.845 184.17 238.81 185.013 239.613C185.855 240.415 186.852 241.038 187.943 241.443C189.034 241.848 190.195 242.027 191.357 241.968C192.465 241.97 193.561 241.746 194.578 241.31C195.596 240.874 196.514 240.235 197.277 239.432C198.039 238.629 198.63 237.68 199.014 236.641C199.397 235.602 199.565 234.496 199.506 233.39ZM195.217 232.962C195.823 233.064 196.372 233.38 196.766 233.852C197.159 234.324 197.371 234.921 197.362 235.535C197.362 236.822 195.646 238.108 194.36 238.108C194.02 238.057 193.693 237.937 193.4 237.757C193.107 237.577 192.853 237.34 192.653 237.06C192.453 236.78 192.312 236.463 192.236 236.127C192.161 235.792 192.154 235.445 192.215 235.106C192.644 233.39 193.502 232.962 195.217 232.962Z" fill="#1E1C15"/>
<path d="M208.62 299.214C207.212 298.836 206.268 298.11 206.012 297.211C205.834 296.585 205.705 289.84 205.82 287.134C205.912 284.962 205.916 284.939 206.193 284.939C206.347 284.939 208.331 284.113 210.602 283.104L214.729 281.27L214.767 283.011C214.851 286.812 214.45 296.3 214.162 297.35C213.979 298.021 213.133 298.824 212.27 299.147C211.423 299.464 209.668 299.496 208.62 299.214Z" fill="#F5F3F0" stroke="#ACA386" stroke-width="0.0180957" stroke-linecap="round" stroke-linejoin="round"/>
<path d="M222.027 299.089C221.823 299.061 221.145 298.92 220.521 298.775C219.278 298.488 218.902 298.219 218.391 297.248C218.135 296.762 218.131 296.635 218.131 289.226C218.131 283.254 218.163 281.709 218.285 281.755C218.37 281.787 220.199 282.47 222.35 283.273C225.13 284.31 226.308 284.806 226.425 284.99C226.645 285.332 226.743 292.622 226.559 294.888C226.447 296.262 226.376 296.596 226.059 297.238C225.855 297.651 225.449 298.222 225.157 298.507C224.625 299.027 224.623 299.027 223.511 299.084C222.899 299.115 222.231 299.118 222.027 299.089Z" fill="#F5F3F0" stroke="#ACA386" stroke-width="0.0180957" stroke-linecap="round" stroke-linejoin="round"/>
</g>
<defs>
<clipPath id="clip0_2107_2">
<rect width="866.64" height="586" fill="white"/>
</clipPath>
</defs>
</svg>
