<svg width="1120" height="699" viewBox="0 0 1120 699" fill="none" xmlns="http://www.w3.org/2000/svg">
<g clip-path="url(#clip0_2107_52)">
<path d="M292.609 426C410.246 426 505.609 330.637 505.609 213C505.609 95.3633 410.246 0 292.609 0C174.972 0 79.6091 95.3633 79.6091 213C79.6091 330.637 174.972 426 292.609 426Z" fill="#F2F2F2"/>
<path d="M0 51.1423C0 128.64 48.6181 191.351 108.701 191.351Z" fill="#2F2E41"/>
<path d="M108.701 191.35C108.701 112.982 162.956 49.5669 230.004 49.5669Z" fill="#CCC6B4"/>
<path d="M39.3843 58.1677C39.3843 131.782 70.3872 191.351 108.701 191.351Z" fill="#CCC6B4"/>
<path d="M108.701 191.35C108.701 91.2128 171.411 10.1826 248.909 10.1826Z" fill="#2F2E41"/>
<path d="M85.8329 192.339C85.8329 192.339 101.248 191.864 105.894 188.556C110.54 185.248 129.607 181.298 130.76 186.603C131.912 191.909 153.927 212.991 136.522 213.132C119.118 213.272 96.0831 210.421 91.4462 207.596C86.8093 204.772 85.8329 192.339 85.8329 192.339Z" fill="#A8A8A8"/>
<path opacity="0.2" d="M136.833 211.285C119.429 211.425 96.3938 208.574 91.7569 205.749C88.2256 203.598 86.8184 195.88 86.3476 192.319C86.0215 192.333 85.833 192.339 85.833 192.339C85.833 192.339 86.8093 204.772 91.4463 207.596C96.0832 210.421 119.118 213.272 136.523 213.132C141.546 213.091 143.282 211.304 143.186 208.656C142.488 210.256 140.572 211.255 136.833 211.285Z" fill="black"/>
<path d="M198.609 449.94C301.886 449.94 385.609 438.55 385.609 424.5C385.609 410.45 301.886 399.06 198.609 399.06C95.3319 399.06 11.6091 410.45 11.6091 424.5C11.6091 438.55 95.3319 449.94 198.609 449.94Z" fill="#3F3D56"/>
<path opacity="0.1" d="M198.609 445.858C285.318 445.858 355.609 436.296 355.609 424.5C355.609 412.704 285.318 403.141 198.609 403.141C111.9 403.141 41.6091 412.704 41.6091 424.5C41.6091 436.296 111.9 445.858 198.609 445.858Z" fill="black"/>
<path d="M836.609 699C992.906 699 1119.61 681.763 1119.61 660.5C1119.61 639.237 992.906 622 836.609 622C680.313 622 553.609 639.237 553.609 660.5C553.609 681.763 680.313 699 836.609 699Z" fill="#3F3D56"/>
<path d="M310.609 668.627C404.498 668.627 480.609 658.273 480.609 645.5C480.609 632.727 404.498 622.373 310.609 622.373C216.721 622.373 140.609 632.727 140.609 645.5C140.609 658.273 216.721 668.627 310.609 668.627Z" fill="#3F3D56"/>
<path d="M462.609 626C552.609 649 725.609 596 744.609 536" stroke="#2F2E41" stroke-width="2" stroke-miterlimit="10"/>
<path d="M309.609 259C309.609 259 439.609 223 447.609 339C455.609 455 340.609 488 430.609 511" stroke="#2F2E41" stroke-width="2" stroke-miterlimit="10"/>
<path d="M184.011 537.283C184.011 537.283 223.084 526.463 225.488 561.328C227.893 596.192 193.329 606.111 220.379 613.023" stroke="#2F2E41" stroke-width="2" stroke-miterlimit="10"/>
<path d="M778.705 563.24L770.827 613.535C770.827 613.535 732.045 634.138 759.314 634.744C786.582 635.35 915.047 634.744 915.047 634.744C915.047 634.744 939.892 634.744 900.504 612.929L892.626 560.21L778.705 563.24Z" fill="#2F2E41"/>
<path opacity="0.1" d="M753.828 634.198C760.021 628.688 770.827 622.946 770.827 622.946L778.705 572.651L892.626 572.758L900.504 622.34C909.689 627.427 915.379 631.327 918.707 634.318C923.766 633.164 929.295 628.875 900.504 612.929L892.626 560.21L778.705 563.24L770.827 613.535C770.827 613.535 738.239 630.85 753.828 634.198Z" fill="black"/>
<path d="M1073.64 212.688H596.479C586.512 212.688 578.433 220.768 578.433 230.734V552.163C578.433 562.129 586.512 570.208 596.479 570.208H1073.64C1083.61 570.208 1091.69 562.129 1091.69 552.163V230.734C1091.69 220.768 1083.61 212.688 1073.64 212.688Z" fill="#2F2E41"/>
<path d="M1074.42 231.777H595.703V499.614H1074.42V231.777Z" fill="#3F3D56"/>
<path d="M835.06 226.323C836.733 226.323 838.089 224.966 838.089 223.293C838.089 221.62 836.733 220.263 835.06 220.263C833.386 220.263 832.03 221.62 832.03 223.293C832.03 224.966 833.386 226.323 835.06 226.323Z" fill="#F2F2F2"/>
<path d="M1091.69 520.822V552.163C1091.69 554.533 1091.22 556.879 1090.31 559.069C1089.41 561.258 1088.08 563.248 1086.4 564.924C1084.73 566.599 1082.74 567.929 1080.55 568.835C1078.36 569.742 1076.01 570.209 1073.64 570.208H596.479C594.109 570.209 591.762 569.742 589.573 568.835C587.383 567.929 585.393 566.599 583.718 564.924C582.042 563.248 580.713 561.258 579.806 559.069C578.899 556.879 578.433 554.533 578.433 552.163V520.822H1091.69Z" fill="#2F2E41"/>
<path d="M968.978 667.466V673.526H642.968V668.678L643.417 667.466L651.452 645.651H962.312L968.978 667.466Z" fill="#2F2E41"/>
<path d="M1094.44 661.533C1093.84 664.072 1091.6 666.751 1086.54 669.284C1068.36 678.373 1031.39 666.86 1031.39 666.86C1031.39 666.86 1002.91 662.012 1002.91 649.287C1003.71 648.739 1004.55 648.243 1005.41 647.802C1013.05 643.759 1038.39 633.781 1083.33 648.225C1086.64 649.264 1089.59 651.201 1091.87 653.822C1093.69 655.953 1095.12 658.657 1094.44 661.533Z" fill="#2F2E41"/>
<path opacity="0.1" d="M1094.44 661.533C1072.19 670.059 1052.35 670.696 1032 656.558C1021.73 649.432 1012.41 647.669 1005.41 647.802C1013.05 643.759 1038.39 633.781 1083.33 648.225C1086.64 649.264 1089.59 651.201 1091.87 653.822C1093.69 655.953 1095.12 658.657 1094.44 661.533Z" fill="black"/>
<path d="M1066.54 656.559C1070.89 656.559 1074.42 655.473 1074.42 654.135C1074.42 652.796 1070.89 651.711 1066.54 651.711C1062.19 651.711 1058.66 652.796 1058.66 654.135C1058.66 655.473 1062.19 656.559 1066.54 656.559Z" fill="#F2F2F2"/>
<path d="M835.06 557.18C841.418 557.18 846.573 552.025 846.573 545.667C846.573 539.308 841.418 534.153 835.06 534.153C828.701 534.153 823.546 539.308 823.546 545.667C823.546 552.025 828.701 557.18 835.06 557.18Z" fill="#F2F2F2"/>
<path opacity="0.1" d="M968.978 667.466V673.526H642.968V668.678L643.417 667.466H968.978Z" fill="black"/>
<path d="M316.609 159H108.609V401H316.609V159Z" fill="#2F2E41"/>
<path d="M337.609 135H87.6091V221H337.609V135Z" fill="#3F3D56"/>
<path d="M337.609 237H87.6091V323H337.609V237Z" fill="#3F3D56"/>
<path d="M337.609 339H87.6091V425H337.609V339Z" fill="#3F3D56"/>
<path opacity="0.4" d="M287.609 150H271.609V166H287.609V150Z" fill="#CCC6B4"/>
<path opacity="0.8" d="M310.609 150H294.609V166H310.609V150Z" fill="#CCC6B4"/>
<path d="M333.609 150H317.609V166H333.609V150Z" fill="#CCC6B4"/>
<path opacity="0.4" d="M287.609 251H271.609V267H287.609V251Z" fill="#CCC6B4"/>
<path opacity="0.8" d="M310.609 251H294.609V267H310.609V251Z" fill="#CCC6B4"/>
<path d="M333.609 251H317.609V267H333.609V251Z" fill="#CCC6B4"/>
<path opacity="0.4" d="M287.609 352H271.609V368H287.609V352Z" fill="#CCC6B4"/>
<path opacity="0.8" d="M310.609 352H294.609V368H310.609V352Z" fill="#CCC6B4"/>
<path d="M333.609 352H317.609V368H333.609V352Z" fill="#CCC6B4"/>
<path d="M316.609 617C360.24 617 395.609 581.63 395.609 538C395.609 494.37 360.24 459 316.609 459C272.979 459 237.609 494.37 237.609 538C237.609 581.63 272.979 617 316.609 617Z" fill="#ACA386"/>
<path d="M304.609 600H280.609V643H304.609V600Z" fill="#ACA386"/>
<path d="M352.609 600H328.609V643H352.609V600Z" fill="#ACA386"/>
<path d="M300.609 651C311.655 651 320.609 647.642 320.609 643.5C320.609 639.358 311.655 636 300.609 636C289.563 636 280.609 639.358 280.609 643.5C280.609 647.642 289.563 651 300.609 651Z" fill="#ACA386"/>
<path d="M348.609 650C359.655 650 368.609 646.642 368.609 642.5C368.609 638.358 359.655 635 348.609 635C337.563 635 328.609 638.358 328.609 642.5C328.609 646.642 337.563 650 348.609 650Z" fill="#ACA386"/>
<path d="M318.609 545C333.521 545 345.609 532.912 345.609 518C345.609 503.088 333.521 491 318.609 491C303.697 491 291.609 503.088 291.609 518C291.609 532.912 303.697 545 318.609 545Z" fill="white"/>
<path d="M318.609 527C323.58 527 327.609 522.971 327.609 518C327.609 513.029 323.58 509 318.609 509C313.639 509 309.609 513.029 309.609 518C309.609 522.971 313.639 527 318.609 527Z" fill="#3F3D56"/>
<path d="M390.703 522.244C410.759 513.66 424.833 501.597 422.138 495.301C419.443 489.005 401 490.86 380.945 499.444C360.889 508.028 346.816 520.09 349.511 526.386C352.205 532.682 370.648 530.828 390.703 522.244Z" fill="#ACA386"/>
<path d="M242.703 575.244C262.759 566.66 276.833 554.597 274.138 548.301C271.443 542.005 253 543.86 232.945 552.444C212.889 561.028 198.816 573.09 201.511 579.386C204.205 585.682 222.648 583.828 242.703 575.244Z" fill="#ACA386"/>
<path d="M362.609 561C362.609 568.732 342.7 584 320.609 584C298.518 584 277.609 569.732 277.609 562C277.609 554.268 298.518 556 320.609 556C342.7 556 362.609 553.268 362.609 561Z" fill="white"/>
<path d="M394.708 538.272C394.708 558.541 386.658 577.979 372.328 592.313C357.998 606.647 338.561 614.702 318.293 614.708C298.024 614.713 278.584 606.668 264.246 592.342C249.908 578.016 241.848 558.582 241.837 538.313C241.826 518.045 249.866 498.602 264.188 484.261C278.51 469.919 297.943 461.853 318.211 461.837C338.479 461.821 357.924 469.855 372.27 484.174C386.615 498.492 394.686 517.922 394.708 538.191" fill="#ACA386"/>
<path d="M394.708 538.272C394.708 558.541 386.658 577.979 372.328 592.313C357.998 606.647 338.561 614.702 318.293 614.708C298.024 614.713 278.584 606.668 264.246 592.342C249.908 578.016 241.848 558.582 241.837 538.313C241.826 518.045 249.866 498.602 264.188 484.261C278.51 469.919 297.943 461.853 318.211 461.837C338.479 461.821 357.924 469.855 372.27 484.174C386.615 498.492 394.686 517.922 394.708 538.191" stroke="#ACA386" stroke-width="0.566929" stroke-linecap="round" stroke-linejoin="round"/>
<path d="M313.905 519.543C313.905 528.925 310.129 537.923 303.408 544.558C296.687 551.193 287.571 554.922 278.065 554.924C268.559 554.927 259.441 551.203 252.716 544.571C245.991 537.94 242.211 528.944 242.206 519.562C242.201 510.18 245.971 501.18 252.689 494.542C259.406 487.903 268.52 484.17 278.027 484.162C287.533 484.155 296.653 487.874 303.381 494.502C310.109 501.129 313.895 510.123 313.905 519.505" fill="#F5F3F0"/>
<path d="M313.905 519.543C313.905 528.925 310.129 537.923 303.408 544.558C296.687 551.193 287.571 554.922 278.065 554.924C268.559 554.927 259.441 551.203 252.716 544.571C245.991 537.94 242.211 528.944 242.206 519.562C242.201 510.18 245.971 501.18 252.689 494.542C259.406 487.903 268.52 484.17 278.027 484.162C287.533 484.155 296.653 487.874 303.381 494.502C310.109 501.129 313.895 510.123 313.905 519.505" stroke="#ACA386" stroke-width="0.40063" stroke-linecap="round" stroke-linejoin="round"/>
<path d="M391.841 519.308C391.841 528.696 388.063 537.699 381.338 544.338C374.613 550.977 365.491 554.709 355.979 554.711C346.467 554.714 337.343 550.987 330.614 544.352C323.885 537.716 320.102 528.715 320.097 519.327C320.092 509.939 323.865 500.934 330.587 494.291C337.308 487.648 346.428 483.912 355.94 483.905C365.453 483.897 374.578 487.619 381.311 494.251C388.043 500.883 391.831 509.882 391.841 519.27" fill="#F5F3F0"/>
<path d="M391.841 519.308C391.841 528.696 388.063 537.699 381.338 544.338C374.613 550.977 365.491 554.709 355.979 554.711C346.467 554.714 337.343 550.987 330.614 544.352C323.885 537.716 320.102 528.715 320.097 519.327C320.092 509.939 323.865 500.934 330.587 494.291C337.308 487.648 346.428 483.912 355.94 483.905C365.453 483.897 374.578 487.619 381.311 494.251C388.043 500.883 391.831 509.882 391.841 519.27" stroke="#ACA386" stroke-width="0.40063" stroke-linecap="round" stroke-linejoin="round"/>
<path d="M335.704 552.857C335.159 552.875 334.624 552.706 334.187 552.378C333.751 552.051 333.439 551.585 333.303 551.056C333.273 549.752 332.858 548.487 332.11 547.418C331.363 546.35 330.315 545.527 329.1 545.053C325.808 542.974 322.038 541.772 318.15 541.562C314.262 541.351 310.385 542.14 306.888 543.852C305.284 544.321 303.857 545.256 302.788 546.539C301.718 547.822 301.056 549.395 300.884 551.056C300.884 552.857 300.284 552.857 299.083 553.458C295.104 554.595 291.683 557.16 289.478 560.662C287.977 562.37 287.052 564.507 286.837 566.771C286.621 569.034 287.125 571.308 288.277 573.269C289.162 575.154 290.636 576.701 292.477 577.675C294.318 578.65 296.426 579 298.483 578.672H301.484C301.484 582.274 300.884 586.476 300.884 590.078C300.884 593.681 303.886 600.885 309.289 600.284C312.341 599.973 315.357 599.37 318.294 598.483C318.894 597.883 318.894 597.883 318.894 598.483C320.748 599.675 322.859 600.405 325.052 600.614C327.245 600.823 329.457 600.504 331.502 599.684C333.107 598.565 334.356 597.008 335.101 595.198C335.846 593.389 336.056 591.403 335.704 589.478C335.704 585.276 335.104 581.674 335.104 577.471H337.505C338.996 577.519 340.479 577.218 341.834 576.593C343.189 575.968 344.38 575.036 345.312 573.871C346.244 572.706 346.892 571.339 347.204 569.88C347.516 568.421 347.484 566.909 347.11 565.464C346.563 562.513 345.207 559.771 343.193 557.545C341.179 555.319 338.586 553.696 335.704 552.857ZM315.893 593.68C315.893 595.482 314.092 597.283 311.09 597.283C308.088 597.283 305.086 596.082 305.086 593.68C304.787 588.682 304.787 583.67 305.086 578.672H305.687L316.493 573.869C316.493 581.073 316.493 587.077 315.893 593.68ZM329.1 596.682C326.884 597.047 324.611 596.84 322.496 596.082C321.896 596.082 320.695 594.281 320.695 593.68V574.47L330.301 578.072C330.459 578.072 330.615 578.103 330.76 578.163C330.906 578.223 331.038 578.312 331.15 578.423C331.261 578.535 331.35 578.667 331.41 578.813C331.47 578.958 331.502 579.115 331.502 579.272C331.802 583.469 331.802 587.682 331.502 591.879C331.502 592.811 331.285 593.731 330.868 594.564C330.451 595.398 329.846 596.123 329.1 596.682ZM342.908 570.868C341.107 573.869 338.105 573.869 333.903 574.47L325.498 572.068C322.96 570.887 320.193 570.275 317.393 570.275C314.594 570.275 311.827 570.887 309.289 572.068L298.483 574.47C297.206 574.878 295.823 574.796 294.602 574.242C293.382 573.687 292.411 572.698 291.879 571.468C291.112 570.065 290.762 568.473 290.868 566.878C290.974 565.283 291.533 563.751 292.479 562.463L296.081 558.861C297.242 557.891 298.678 557.311 300.187 557.204C301.695 557.096 303.199 557.466 304.486 558.26C308.56 560.879 313.346 562.17 318.185 561.955C323.023 561.74 327.676 560.029 331.502 557.06H334.503C336.884 557.897 339.114 559.113 341.107 560.662C342.291 562.047 343.083 563.724 343.399 565.519C343.716 567.314 343.546 569.161 342.908 570.868Z" fill="#1E1C15"/>
<path d="M357.093 509.113C355.61 509.111 354.143 509.411 352.78 509.994C351.417 510.577 350.187 511.431 349.164 512.505C348.142 513.578 347.348 514.849 346.832 516.239C346.316 517.628 346.089 519.109 346.163 520.589C346.161 522 346.446 523.397 347.002 524.693C347.558 525.99 348.372 527.16 349.395 528.132C350.417 529.104 351.628 529.857 352.951 530.345C354.275 530.834 355.684 531.047 357.093 530.973C359.992 530.973 362.772 529.821 364.821 527.772C366.871 525.722 368.023 522.942 368.023 520.043C368.023 517.144 366.871 514.364 364.821 512.314C362.772 510.264 359.992 509.113 357.093 509.113ZM362.011 526.054C361.581 526.054 361.154 525.97 360.756 525.805C360.359 525.64 359.997 525.398 359.693 525.094C359.388 524.789 359.147 524.428 358.982 524.03C358.817 523.632 358.732 523.206 358.732 522.775C358.628 522.323 358.64 521.852 358.767 521.406C358.895 520.96 359.134 520.554 359.462 520.226C359.79 519.898 360.196 519.659 360.642 519.531C361.088 519.404 361.559 519.392 362.011 519.496C362.794 519.485 363.555 519.755 364.156 520.256C364.758 520.757 365.16 521.457 365.29 522.229C365.3 523.155 364.973 524.054 364.37 524.758C363.766 525.461 362.928 525.922 362.011 526.054Z" fill="#1E1C15"/>
<path d="M287.109 521.243C287.188 519.787 286.959 518.331 286.438 516.969C285.917 515.607 285.114 514.37 284.083 513.339C283.052 512.308 281.815 511.506 280.453 510.984C279.092 510.463 277.635 510.234 276.179 510.313C274.744 510.313 273.322 510.596 271.996 511.145C270.67 511.694 269.465 512.499 268.45 513.514C267.435 514.529 266.63 515.734 266.081 517.06C265.532 518.386 265.249 519.808 265.249 521.243C265.247 522.726 265.547 524.193 266.13 525.556C266.713 526.919 267.568 528.149 268.641 529.172C269.715 530.194 270.985 530.987 272.375 531.503C273.765 532.019 275.245 532.247 276.726 532.173C278.136 532.175 279.533 531.89 280.83 531.334C282.126 530.778 283.296 529.964 284.268 528.941C285.24 527.918 285.993 526.708 286.481 525.385C286.97 524.061 287.183 522.652 287.109 521.243ZM281.644 520.697C282.416 520.827 283.116 521.229 283.617 521.831C284.118 522.432 284.388 523.193 284.377 523.976C284.377 525.615 282.191 527.255 280.551 527.255C280.118 527.189 279.702 527.036 279.329 526.807C278.955 526.578 278.632 526.276 278.377 525.919C278.122 525.562 277.942 525.158 277.846 524.731C277.75 524.303 277.741 523.86 277.819 523.429C278.365 521.243 279.458 520.697 281.644 520.697Z" fill="#1E1C15"/>
<path d="M308.596 596.886C306.802 596.404 305.599 595.48 305.273 594.333C305.047 593.536 304.882 584.942 305.028 581.494C305.145 578.726 305.15 578.697 305.504 578.697C305.701 578.697 308.228 577.645 311.121 576.359L316.381 574.021L316.429 576.241C316.535 581.084 316.025 593.172 315.659 594.511C315.424 595.366 314.347 596.389 313.248 596.8C312.168 597.204 309.932 597.245 308.596 596.886Z" fill="#F5F3F0" stroke="#ACA386" stroke-width="0.0180957" stroke-linecap="round" stroke-linejoin="round"/>
<path d="M325.679 596.727C325.419 596.691 324.556 596.511 323.76 596.327C322.177 595.961 321.698 595.618 321.046 594.38C320.72 593.762 320.715 593.6 320.715 584.158C320.715 576.549 320.756 574.58 320.912 574.639C321.02 574.68 323.351 575.551 326.091 576.573C329.633 577.895 331.134 578.527 331.284 578.761C331.564 579.197 331.689 588.486 331.454 591.374C331.311 593.123 331.221 593.549 330.817 594.368C330.558 594.893 330.04 595.621 329.667 595.985C328.99 596.647 328.988 596.647 327.571 596.72C326.791 596.76 325.939 596.763 325.679 596.727Z" fill="#F5F3F0" stroke="#ACA386" stroke-width="0.0180957" stroke-linecap="round" stroke-linejoin="round"/>
</g>
<defs>
<clipPath id="clip0_2107_52">
<rect width="1119.61" height="699" fill="white"/>
</clipPath>
</defs>
</svg>
